<svg xmlns="http://www.w3.org/2000/svg" xmlns:xlink="http://www.w3.org/1999/xlink" preserveAspectRatio="xMidYMid" width="16" height="16" viewBox="0 0 16 16">
  <defs>
    <style>
      .cls-1 {
        fill: #f17134;
        fill-rule: evenodd;
      }
    </style>
  </defs>
  <path d="M14.000,16.000 L11.000,16.000 C9.895,16.000 9.000,15.104 9.000,14.000 L9.000,11.000 C9.000,9.895 9.895,9.000 11.000,9.000 L14.000,9.000 C15.105,9.000 16.000,9.895 16.000,11.000 L16.000,14.000 C16.000,15.104 15.105,16.000 14.000,16.000 ZM14.000,7.000 L11.000,7.000 C9.895,7.000 9.000,6.104 9.000,5.000 L9.000,2.000 C9.000,0.895 9.895,-0.000 11.000,-0.000 L14.000,-0.000 C15.105,-0.000 16.000,0.895 16.000,2.000 L16.000,5.000 C16.000,6.104 15.105,7.000 14.000,7.000 ZM5.000,16.000 L2.000,16.000 C0.895,16.000 -0.000,15.104 -0.000,14.000 L-0.000,11.000 C-0.000,9.895 0.895,9.000 2.000,9.000 L5.000,9.000 C6.104,9.000 7.000,9.895 7.000,11.000 L7.000,14.000 C7.000,15.104 6.104,16.000 5.000,16.000 ZM5.000,7.000 L2.000,7.000 C0.895,7.000 -0.000,6.104 -0.000,5.000 L-0.000,2.000 C-0.000,0.895 0.895,-0.000 2.000,-0.000 L5.000,-0.000 C6.104,-0.000 7.000,0.895 7.000,2.000 L7.000,5.000 C7.000,6.104 6.104,7.000 5.000,7.000 Z" class="cls-1"/>
</svg>
