<svg xmlns="http://www.w3.org/2000/svg" xmlns:xlink="http://www.w3.org/1999/xlink" preserveAspectRatio="xMidYMid" width="16" height="16" viewBox="0 0 16 16">
  <defs>
    <style>
      .cls-1 {
        fill: #bfc0c2;
        fill-rule: evenodd;
      }
    </style>
  </defs>
  <path d="M14.500,10.000 L1.500,10.000 C0.671,10.000 -0.000,9.104 -0.000,8.000 C-0.000,6.895 0.671,6.000 1.500,6.000 L14.500,6.000 C15.328,6.000 16.000,6.895 16.000,8.000 C16.000,9.104 15.328,10.000 14.500,10.000 ZM14.500,4.000 L1.500,4.000 C0.671,4.000 -0.000,3.104 -0.000,2.000 C-0.000,0.895 0.671,-0.000 1.500,-0.000 L14.500,-0.000 C15.328,-0.000 16.000,0.895 16.000,2.000 C16.000,3.104 15.328,4.000 14.500,4.000 ZM1.500,12.000 L14.500,12.000 C15.328,12.000 16.000,12.895 16.000,14.000 C16.000,15.104 15.328,16.000 14.500,16.000 L1.500,16.000 C0.671,16.000 -0.000,15.104 -0.000,14.000 C-0.000,12.895 0.671,12.000 1.500,12.000 Z" class="cls-1"/>
</svg>
