<?xml version="1.0" encoding="utf-8"?>
<!-- Generator: Adobe Illustrator 22.0.1, SVG Export Plug-In . SVG Version: 6.00 Build 0)  -->
<svg version="1.1" id="Capa_1" xmlns="http://www.w3.org/2000/svg" xmlns:xlink="http://www.w3.org/1999/xlink" x="0px" y="0px"
	 viewBox="0 0 33.2 33.2" style="enable-background:new 0 0 33.2 33.2;" xml:space="preserve">
<g>
	<path d="M16.6,17.9c-3.1,0-5.7-2.5-5.7-5.7s2.5-5.7,5.7-5.7s5.7,2.5,5.7,5.7S19.7,17.9,16.6,17.9z M16.6,7.5
		c-2.6,0-4.7,2.1-4.7,4.7s2.1,4.7,4.7,4.7s4.7-2.1,4.7-4.7S19.2,7.5,16.6,7.5z"/>
	<g>
		<path d="M16.6,33.2c-0.1,0-0.3-0.1-0.4-0.2C15.7,32.4,4.4,18.8,4.4,12.2C4.4,5.5,9.9,0,16.6,0s12.2,5.5,12.2,12.2
			c0,6.6-11.4,20.2-11.8,20.8C16.9,33.1,16.8,33.2,16.6,33.2z M16.6,1C10.4,1,5.4,6,5.4,12.2c0,5.6,9.2,17.2,11.2,19.7
			c2-2.5,11.2-14.1,11.2-19.7C27.8,6,22.8,1,16.6,1z"/>
	</g>
</g>
</svg>
