<?xml version="1.0" encoding="utf-8"?>
<!-- Generator: Adobe Illustrator 22.0.1, SVG Export Plug-In . SVG Version: 6.00 Build 0)  -->
<svg version="1.1" id="Слой_1" xmlns="http://www.w3.org/2000/svg" xmlns:xlink="http://www.w3.org/1999/xlink" x="0px" y="0px"
	 viewBox="0 0 30 30" style="enable-background:new 0 0 30 30;" xml:space="preserve">
<path id="path10" inkscape:connector-curvature="0" style="fill:#207245;" d="M15.7,0.1h2c0,0.9,0,1.8,0,2.7c3.4,0,6.8,0,10.2,0
	c0.6,0,1.2,0,1.7,0.3C30,3.7,30,4.3,30,4.9c0,5.9,0,11.8,0,17.7c0,1,0.1,2-0.1,3c-0.1,0.7-1,0.7-1.6,0.8c-3.5,0-7.1,0-10.6,0
	c0,1,0,2,0,3.1h-2.1c-5.2-1-10.4-1.8-15.6-2.7c0-8,0-15.9,0-23.9C5.3,2,10.5,1.1,15.7,0.1z"/>
<path id="path48" inkscape:connector-curvature="0" style="fill:#FFFFFF;" d="M17.7,3.9c3.8,0,7.5,0,11.2,0c0,7.2,0,14.3,0,21.5
	c-3.8,0-7.5,0-11.3,0c0-0.7,0-1.4,0-2c0.9,0,1.8,0,2.7,0c0-0.8,0-1.6,0-2.4c-0.9,0-1.8,0-2.7,0c0-0.5,0-0.9,0-1.4c0.9,0,1.8,0,2.7,0
	c0-0.8,0-1.6,0-2.4c-0.9,0-1.8,0-2.7,0c0-0.5,0-0.9,0-1.4c0.9,0,1.8,0,2.7,0c0-0.8,0-1.6,0-2.4c-0.9,0-1.8,0-2.7,0
	c0-0.5,0-0.9,0-1.4c0.9,0,1.8,0,2.7,0c0-0.8,0-1.6,0-2.4c-0.9,0-1.8,0-2.7,0c0-0.5,0-0.9,0-1.4c0.9,0,1.8,0,2.7,0c0-0.8,0-1.6,0-2.4
	c-0.9,0-1.8,0-2.7,0C17.7,5.3,17.7,4.6,17.7,3.9z"/>
<path id="path58" inkscape:connector-curvature="0" style="fill:#207245;" d="M21.8,5.9c1.6,0,3.2,0,4.8,0c0,0.8,0,1.6,0,2.4
	c-1.6,0-3.2,0-4.8,0C21.8,7.5,21.8,6.7,21.8,5.9z"/>
<path id="path72" inkscape:connector-curvature="0" style="fill:#FFFFFF;" d="M10.1,9.1C10.9,9.1,11.7,9,12.4,9
	c-0.9,1.9-1.8,3.7-2.8,5.6c0.9,1.9,1.9,3.8,2.8,5.7c-0.8-0.1-1.6-0.1-2.5-0.2c-0.6-1.4-1.3-2.8-1.7-4.3c-0.5,1.4-1.1,2.7-1.7,4
	c-0.7,0-1.5,0-2.2-0.1c0.9-1.7,1.7-3.4,2.6-5.1c-0.8-1.7-1.6-3.5-2.4-5.2c0.7-0.1,1.5-0.1,2.2-0.1c0.5,1.3,1.1,2.6,1.5,4
	C8.9,11.9,9.5,10.5,10.1,9.1z"/>
<path id="path90" inkscape:connector-curvature="0" style="fill:#207245;" d="M21.8,9.7c1.6,0,3.2,0,4.8,0c0,0.8,0,1.6,0,2.4
	c-1.6,0-3.2,0-4.8,0C21.8,11.3,21.8,10.5,21.8,9.7z"/>
<path id="path108" inkscape:connector-curvature="0" style="fill:#207245;" d="M21.8,13.4c1.6,0,3.2,0,4.8,0c0,0.8,0,1.6,0,2.4
	c-1.6,0-3.2,0-4.8,0C21.8,15,21.8,14.2,21.8,13.4z"/>
<path id="path114" inkscape:connector-curvature="0" style="fill:#207245;" d="M21.8,17.2c1.6,0,3.2,0,4.8,0c0,0.8,0,1.6,0,2.4
	c-1.6,0-3.2,0-4.8,0C21.8,18.8,21.8,18,21.8,17.2z"/>
<path id="path120" inkscape:connector-curvature="0" style="fill:#207245;" d="M21.8,20.9c1.6,0,3.2,0,4.8,0c0,0.8,0,1.6,0,2.4
	c-1.6,0-3.2,0-4.8,0C21.8,22.5,21.8,21.7,21.8,20.9z"/>
</svg>
