<?xml version="1.0" encoding="utf-8"?>
<!-- Generator: Adobe Illustrator 22.0.1, SVG Export Plug-In . SVG Version: 6.00 Build 0)  -->
<svg version="1.1" id="Слой_1" xmlns="http://www.w3.org/2000/svg" xmlns:xlink="http://www.w3.org/1999/xlink" x="0px" y="0px"
	 viewBox="0 0 488.5 431.6" enable-background="new 0 0 488.5 431.6" xml:space="preserve">
<g>
	<path d="M484.1,383.6L271.9,16c-12.3-21.3-43.1-21.3-55.4,0L4.3,383.6c-12.3,21.3,3.1,48,27.7,48h424.4
		C481,431.6,496.4,404.9,484.1,383.6 M244.5,129.2c13.6,0,24.6,11.3,24.2,24.9l-4,139.6c-0.3,11-9.3,19.7-20.3,19.7
		s-20-8.8-20.3-19.7l-3.9-139.6C219.9,140.5,230.8,129.2,244.5,129.2 M244.2,381.7c-13.9,0-25.2-11.3-25.2-25.2
		c0-13.9,11.3-25.2,25.2-25.2c13.9,0,25.2,11.3,25.2,25.2C269.4,370.4,258.1,381.7,244.2,381.7"/>
</g>
</svg>
