<?xml version="1.0" encoding="utf-8"?>
<!-- Generator: Adobe Illustrator 22.0.1, SVG Export Plug-In . SVG Version: 6.00 Build 0)  -->
<svg version="1.1" id="Слой_1" xmlns="http://www.w3.org/2000/svg" xmlns:xlink="http://www.w3.org/1999/xlink" x="0px" y="0px"
	 viewBox="0 0 456 512" enable-background="new 0 0 456 512" xml:space="preserve">
<g>
	<path d="M455.5,493l-40.6-148.4c-0.9-3.3-2.9-6.3-5.8-8.3c-64.3-45.8-43.2-30.8-98.2-69.9c20.9-21.4,32.9-50.4,32.9-80.8
		c0-60.5,0.4-63.8-1.4-74.8C341.8,47.6,293.8,0,230.3,0h-4.7c-63.5,0-111.5,47.6-112.1,110.9c-1.8,11-1.4,14.3-1.4,74.8
		c0,30.3,12,59.3,32.9,80.8c-69.6,49.5-28.9,20.6-98.2,69.9c-2.8,2-4.9,4.9-5.8,8.3L0.5,493c-2.6,9.5,4.6,19,14.5,19h198V353.5
		l15-9.9l15,9.9V512h198C450.9,512,458.1,502.6,455.5,493 M218.2,48.6h19.6c8.3,0,15,6.7,15,15s-6.7,15-15,15h-19.6
		c-8.3,0-15-6.7-15-15S209.9,48.6,218.2,48.6 M213,317.6l-33,21.7l-44-29.5l33.7-24c13.8,8,28.7,12.8,43.3,14.7V317.6z M228,271.4
		c-47.6,0-85.8-38.7-85.8-85.7c0-10.7,0-19.6,0-27.1l8.1,11.8c2.8,4.1,7.4,6.5,12.4,6.5h130.9c4.9,0,9.6-2.4,12.4-6.5l8.1-11.8
		c0,7.4,0,16.3,0,27.1C313.8,232.4,276.1,271.4,228,271.4 M243,317.6v-17.1c15.4-2,30.2-7.1,43.3-14.7l33.7,24l-44,29.5L243,317.6z
		 M355.4,448.1h-52.6c-8.3,0-15-6.7-15-15s6.7-15,15-15h52.6c8.3,0,15,6.7,15,15S363.7,448.1,355.4,448.1"/>
</g>
</svg>
