<?xml version="1.0" encoding="utf-8"?>
<!-- Generator: Adobe Illustrator 22.0.1, SVG Export Plug-In . SVG Version: 6.00 Build 0)  -->
<svg version="1.1" id="Capa_1" xmlns="http://www.w3.org/2000/svg" xmlns:xlink="http://www.w3.org/1999/xlink" x="0px" y="0px"
	 viewBox="-289 412.2 16.7 16.7" style="enable-background:new -289 412.2 16.7 16.7;" xml:space="preserve">
<g>
	<path style="fill:#030104;" d="M-274,420.2c-0.4-0.2-1-0.3-1.6-0.3c1.1-0.4,1.6-1.4,1.3-2.2c-0.3-0.8-1.5-1.1-2.5-0.6
		c-0.3,0.1-0.6,0.3-0.9,0.5c0.5-0.6,1-1.2,1.1-1.7c0.5-1.4-0.2-2.9-1.5-3.4c-1.4-0.5-2.9,0.2-3.4,1.5c-0.1,0.3-0.2,0.6-0.2,1
		c-0.5-0.9-1.4-1.4-2.1-1.1c-0.8,0.3-1.1,1.5-0.6,2.5c0,0.1,0.1,0.1,0.1,0.2c-0.3-0.2-0.7-0.4-1-0.6c-1.4-0.5-2.9,0.2-3.4,1.5
		c-0.5,1.4,0.2,2.9,1.5,3.4c0.3,0.1,0.7,0.2,1.1,0.2c-1,0.5-1.6,1.4-1.3,2.2c0.3,0.8,1.5,1.1,2.5,0.6c0,0,0,0,0.1,0
		c-0.3,0.4-0.5,0.7-0.6,1c-0.5,1.4,0.2,2.9,1.5,3.4c1.4,0.5,2.9-0.2,3.4-1.5c0.2-0.4,0.3-1.1,0.3-1.7c0,0.1,0.1,0.2,0.1,0.3
		c0.4,1.1,1.4,1.7,2.2,1.3c0.8-0.3,1.1-1.5,0.6-2.5c0,0,0,0,0,0c0.4,0.4,0.9,0.6,1.3,0.8c1.4,0.5,2.9-0.2,3.4-1.5
		C-272,422.3-272.7,420.8-274,420.2z M-276.6,417.5c0.8-0.3,1.6-0.1,1.9,0.5c0.2,0.6-0.2,1.3-1,1.7c-0.6,0.2-1.8,0.5-2.5,0.3
		c0-0.1-0.1-0.2-0.1-0.3c-0.1-0.2-0.2-0.3-0.3-0.5C-278.3,418.5-277.2,417.7-276.6,417.5z M-280.9,414.2c0.4-1,1.5-1.5,2.6-1.1
		c1,0.4,1.5,1.5,1.1,2.6c-0.3,0.8-1.6,2.4-2.6,2.6c-0.3-0.1-0.5-0.2-0.8-0.2C-281.3,417.5-281.2,415.2-280.9,414.2z M-283.7,414.4
		c0.6-0.2,1.3,0.2,1.7,1c0.1,0.2,0.1,0.4,0.2,0.6c0,0.5,0.1,0.9,0.2,1.4c0,0.5-0.1,0.9-0.3,1c-0.6,0.2-1.8-1.3-2.1-2.1
		C-284.5,415.5-284.3,414.6-283.7,414.4z M-287,420.5c-1-0.4-1.5-1.5-1.1-2.6c0.4-1,1.5-1.5,2.6-1.1c1,0.4,2.9,2,2.7,3
		c0,0,0,0.1,0,0.1C-283.5,420.9-286,420.8-287,420.5z M-281.1,426.8c-0.4,1-1.5,1.5-2.6,1.1c-1-0.4-1.5-1.5-1.1-2.6
		c0.4-1,1.9-2.8,2.9-2.7c0.1,0.1,0.3,0.1,0.4,0.2C-280.7,423.6-280.8,425.9-281.1,426.8z M-282.4,421.4c-0.4-0.9,0-2.1,1-2.5
		c0.9-0.4,2.1,0,2.5,1c0.4,0.9,0,2-0.9,2.4h0c0,0,0,0,0,0c0,0,0,0-0.1,0C-280.8,422.8-281.9,422.3-282.4,421.4z M-278.1,426.5
		c-0.6,0.2-1.3-0.2-1.7-1c-0.2-0.6-0.4-1.8-0.3-2.5c0.1,0,0.3-0.1,0.4-0.1c0.2-0.1,0.3-0.2,0.5-0.3c0.6,0.4,1.3,1.4,1.6,2
		C-277.3,425.4-277.5,426.2-278.1,426.5z M-273.1,423.4c-0.4,1-1.5,1.5-2.6,1.1c-1-0.4-2.9-2-2.7-3c0-0.1,0.1-0.1,0.1-0.2
		c0.5-0.9,3-0.9,4-0.5C-273.3,421.3-272.7,422.4-273.1,423.4z"/>
</g>
</svg>
