<?xml version="1.0" encoding="utf-8"?>
<!-- Generator: Adobe Illustrator 22.0.1, SVG Export Plug-In . SVG Version: 6.00 Build 0)  -->
<svg version="1.1" id="Слой_1" xmlns="http://www.w3.org/2000/svg" xmlns:xlink="http://www.w3.org/1999/xlink" x="0px" y="0px"
	 viewBox="-41 164.9 512 512" style="enable-background:new -41 164.9 512 512;" xml:space="preserve">
<path d="M457.1,472.2c3.6-16.9,5.4-34.1,5.4-51.3c0-66.1-25.7-128.2-72.5-175c-46.7-46.7-108.9-72.5-175-72.5
	c-17.1,0-34.3,1.8-51.3,5.4c-19.1-9.1-40.3-13.9-61.6-13.9C23.2,164.9-41,229.1-41,308c0,21.3,4.8,42.4,13.9,61.6
	c-3.6,16.9-5.4,34.1-5.4,51.3c0,66.1,25.7,128.2,72.5,175c46.7,46.7,108.9,72.5,175,72.5c17.1,0,34.3-1.8,51.3-5.4
	c19.1,9.1,40.3,13.9,61.6,13.9c78.9,0,143.1-64.2,143.1-143.1C471,512.5,466.2,491.3,457.1,472.2z M327.9,646.9
	c-18.6,0-36.3-4.4-52.6-13c-2.2-1.1-4.6-1.7-7-1.7c-1.1,0-2.3,0.1-3.4,0.4c-16.4,3.8-33.2,5.8-49.8,5.8
	C95.1,638.4-2.5,540.8-2.5,420.9c0-16.7,1.9-33.4,5.8-49.8c0.8-3.5,0.4-7.2-1.3-10.4c-8.6-16.4-13-34.1-13-52.6
	c0-62.4,50.8-113.1,113.1-113.1c18.6,0,36.3,4.4,52.6,13c3.2,1.7,6.9,2.2,10.4,1.3c16.4-3.8,33.2-5.8,49.8-5.8
	c119.9,0,217.5,97.6,217.5,217.5c0,16.7-1.9,33.4-5.8,49.8c-0.8,3.5-0.4,7.2,1.3,10.4c8.6,16.4,13,34.1,13,52.6
	C441,596.1,390.2,646.9,327.9,646.9z"/>
<path d="M215,304.9c44.2,0,81.6,23.1,81.6,50.5c0,8.3,6.7,15,15,15c8.3,0,15-6.7,15-15c0-22.6-12.4-43.5-34.9-58.7
	c-20.7-14-48-21.8-76.7-21.8s-56,7.7-76.7,21.8c-22.5,15.2-34.9,36.1-34.9,58.7s12.4,43.5,34.9,58.7c20.7,14,48,21.8,76.7,21.8
	c44.2,0,81.6,23.1,81.6,50.5c0,27.4-37.4,50.5-81.6,50.5c-44.3,0-81.6-23.1-81.6-50.5c0-8.3-6.7-15-15-15c-8.3,0-15,6.7-15,15
	c0,22.6,12.4,43.5,34.9,58.7c20.7,14,48,21.8,76.7,21.8s56-7.7,76.7-21.8c22.5-15.2,34.9-36.1,34.9-58.7c0-22.6-12.4-43.5-34.9-58.7
	c-20.7-14-48-21.8-76.7-21.8c-44.3,0-81.6-23.1-81.6-50.5C133.4,328,170.8,304.9,215,304.9z"/>
</svg>
