<?xml version="1.0" encoding="utf-8"?>
<!-- Generator: Adobe Illustrator 22.1.0, SVG Export Plug-In . SVG Version: 6.00 Build 0)  -->
<svg version="1.1" id="Слой_1" xmlns="http://www.w3.org/2000/svg" xmlns:xlink="http://www.w3.org/1999/xlink" x="0px" y="0px"
	 viewBox="-100 223.9 394 394" style="enable-background:new -100 223.9 394 394;" xml:space="preserve">
<path d="M267.8,223.9H-83.4c-6.2,0-11.9,3.4-14.7,9c-2.9,5.6-2.4,12.3,1.3,17.4L31.8,431.6c0,0.1,0.1,0.1,0.1,0.2
	c4.7,6.3,7.2,14,7.2,21.8v149.8c0,4.4,1.7,8.6,4.8,11.7c3.1,3.1,7.3,4.9,11.7,4.9c2.2,0,4.4-0.4,6.5-1.3l72.3-27.6
	c6.5-2,10.8-8.1,10.8-15.5v-122c0-7.9,2.5-15.5,7.2-21.8c0-0.1,0.1-0.1,0.1-0.2l128.7-181.3c3.7-5.1,4.2-11.8,1.3-17.4
	C279.7,227.3,274,223.9,267.8,223.9z"/>
</svg>
