<?xml version="1.0" encoding="utf-8"?>
<!-- Generator: Adobe Illustrator 22.0.1, SVG Export Plug-In . SVG Version: 6.00 Build 0)  -->
<svg version="1.1" id="Слой_1" xmlns="http://www.w3.org/2000/svg" xmlns:xlink="http://www.w3.org/1999/xlink" x="0px" y="0px"
	 viewBox="0 0 364.2 61.4" enable-background="new 0 0 364.2 61.4" xml:space="preserve">
<g>
	<g>
		<path fill="#293338" d="M53.4,27.4c-6.1,3.2-9.2,4.4-10.4,2.9C41.2,27.9,56.4,7,52.4,5.9c-2-0.5-18.5,11.5-22.5,14.2
			c-3.7,2.6-7.3,5.4-10,9l-19.3,23c-1.5,1.9-0.1,4.6,2.2,4.6h3.4c0.2,0,1.7,0,2.3,0l19.2,0l3.1,0c2.6,0,4-2.9,2.4-5l-1-1.2l-4.3-5
			c-1.2-1.6-3.6-1.6-4.8,0c0.2-0.2-1.3,1.4-2.5,2.8c-0.8,0.9-1.7,1.9-3.1,1.9c-1.6,0-2.9-1.3-2.9-2.9c0-0.8,0.5-1.5,0.9-2.1l7.3-8.5
			c1.4-1.7,4-1.7,5.4,0l11.6,14.1l3.6,4.6c0.3,0.4,1.1,0.9,1.6,1.1c2.1,0.5,3.7-0.4,4.5-1.8c0,0,11.3-26,11.3-27.6
			C60.7,25.5,59.5,24.2,53.4,27.4z"/>
	</g>
	<g>
		<path fill="#293338" d="M78.7,21.5c0-5.2,1.3-9.1,3.9-11.5c2.6-2.5,6.5-3.7,11.7-3.7H99c3.1,0,5.9,0.7,8.4,2.2
			c2.5,1.5,3.7,3.3,3.7,5.5c0,0.8-0.2,1.4-0.7,1.8c-0.5,0.4-1,0.5-1.4,0.5h-2.5c-1.2,0-2.2-0.7-2.8-2c-0.7-1.4-2.5-2.1-5.3-2.1h-3.7
			c-3.1,0-5.2,0.7-6.2,2s-1.6,3.8-1.6,7.3c0,3.5,0.5,5.9,1.5,7.3c1,1.3,2.7,2,5.3,2h4.3c2.3,0,3.9-0.4,4.8-1.3
			c1-0.8,1.5-2.1,1.5-3.6h-4.8c-0.5,0-1-0.2-1.4-0.6c-0.4-0.4-0.6-0.9-0.6-1.4v-1.7c0-0.6,0.2-1,0.6-1.4c0.4-0.4,0.9-0.6,1.4-0.6
			h10.6c0.5,0,1,0.2,1.4,0.6c0.4,0.4,0.6,0.9,0.6,1.4v2.3c0,3.9-1.2,7-3.5,9.1c-2.4,2.1-5.8,3.2-10.4,3.2h-4.7
			c-4.7,0-8.2-1.3-10.7-3.8C79.9,30.5,78.7,26.7,78.7,21.5z"/>
		<path fill="#293338" d="M116,34.6V8.5c0-0.5,0.2-1,0.6-1.4c0.4-0.4,0.9-0.6,1.4-0.6h4c0.5,0,1,0.2,1.4,0.6
			c0.4,0.4,0.6,0.9,0.6,1.4v10.1h4.5c1.2,0,2.3-0.3,3.2-1c0.9-0.7,1.8-1.8,2.7-3.3l3.3-5.8c0.7-1.3,1.8-2,3-2h4.9
			c0.5,0,0.9,0.2,1,0.6c0,0.1,0,0.2,0,0.3c0,0.3-0.1,0.7-0.4,1.2l-4.6,8.3c-0.7,1.2-1.4,2.2-2.2,3c-0.8,0.8-1.9,1.3-3.2,1.7
			c0.9,0.2,1.9,0.8,2.8,1.7s1.8,2,2.6,3.2l5.3,8.4c0.2,0.4,0.4,0.8,0.4,1.1c0,0.1,0,0.2-0.1,0.4c-0.1,0.4-0.5,0.6-1,0.6h-4.8
			c-0.5,0-1.1-0.2-1.8-0.6c-0.6-0.4-1.1-0.9-1.5-1.4l-3.7-5.9c-0.9-1.4-1.8-2.5-2.7-3.2c-0.9-0.7-2-1.1-3.2-1.1H124v10.2
			c0,0.5-0.2,1-0.6,1.4c-0.4,0.4-0.9,0.6-1.4,0.6h-4c-0.5,0-1-0.2-1.4-0.6S116,35.1,116,34.6z"/>
		<path fill="#293338" d="M148.1,24.6v-2.5c0-0.4,0.1-0.7,0.4-0.9c0.2-0.2,0.5-0.4,0.9-0.4h15.9c0.4,0,0.7,0.1,0.9,0.4
			s0.4,0.6,0.4,0.9v2.5c0,0.4-0.1,0.7-0.4,0.9s-0.6,0.4-0.9,0.4h-15.9c-0.4,0-0.7-0.1-0.9-0.4S148.1,25,148.1,24.6z"/>
		<path fill="#293338" d="M167.9,34.7l5.3-20c1.4-5.5,6.1-8.2,14-8.2h11.3c0.5,0,1,0.2,1.3,0.6c0.3,0.4,0.5,0.8,0.5,1.4v26.3
			c0,0.5-0.2,1-0.6,1.4c-0.4,0.4-0.9,0.6-1.4,0.6h-4c-0.6,0-1-0.2-1.4-0.6c-0.4-0.4-0.6-0.8-0.6-1.4v-5.3h-14.9l-1.4,5.3
			c-0.1,0.6-0.5,1-1,1.4c-0.5,0.4-1,0.6-1.6,0.6h-4.2c-0.5,0-1-0.2-1.2-0.6c-0.2-0.3-0.3-0.5-0.3-0.9
			C167.9,35,167.9,34.9,167.9,34.7z M179.1,23.4h13.3v-11h-6c-1.3,0-2.5,0.4-3.5,1.1c-1,0.8-1.7,1.8-2,3.1L179.1,23.4z"/>
		<path fill="#293338" d="M206.3,34.6V8.5c0-0.6,0.2-1.1,0.6-1.5c0.4-0.4,0.8-0.6,1.4-0.6h8.6c0.6,0,1.1,0.2,1.6,0.6
			c0.5,0.4,0.8,0.9,1,1.4l6.3,18l6.3-18c0.2-0.5,0.5-1,1-1.4c0.5-0.4,1-0.6,1.6-0.6h8.6c0.6,0,1,0.2,1.4,0.6
			c0.4,0.4,0.6,0.9,0.6,1.5v26.1c0,0.6-0.2,1.1-0.6,1.4c-0.4,0.4-0.9,0.6-1.4,0.6h-3.9c-0.6,0-1-0.2-1.4-0.6
			c-0.4-0.4-0.6-0.9-0.6-1.4V14l-7.4,20.7c-0.2,0.5-0.5,1-1,1.3c-0.5,0.4-1,0.6-1.6,0.6h-3c-0.5,0-1.1-0.2-1.5-0.6
			c-0.5-0.4-0.8-0.8-1-1.3L214.3,14v20.5c0,0.6-0.2,1.1-0.6,1.4c-0.4,0.4-0.9,0.6-1.4,0.6h-3.9c-0.6,0-1-0.2-1.4-0.6
			C206.5,35.6,206.3,35.2,206.3,34.6z"/>
		<path fill="#293338" d="M250.8,34.7V8.5c0-0.6,0.2-1.1,0.6-1.5c0.4-0.4,0.9-0.6,1.4-0.6h4c0.5,0,1,0.2,1.4,0.6
			c0.4,0.4,0.6,0.9,0.6,1.5v22.2h18.3c0.5,0,1,0.2,1.4,0.6c0.4,0.4,0.6,0.9,0.6,1.4v2c0,0.5-0.2,1-0.6,1.4c-0.4,0.4-0.9,0.6-1.4,0.6
			h-24.2c-0.5,0-1-0.2-1.4-0.6C251,35.7,250.8,35.2,250.8,34.7z"/>
	</g>
	<g>
		<path fill="#293338" d="M87.2,56.7h-1.6V49h-4v7.7h-1.6v-9h7.3V56.7z"/>
		<path fill="#293338" d="M89.7,52.1c0-1.3,0.4-2.4,1.1-3.3c0.7-0.9,1.7-1.3,2.9-1.3c1.3,0,2.2,0.4,3,1.3c0.7,0.9,1.1,2,1.1,3.3v0.2
			c0,1.3-0.4,2.4-1.1,3.3s-1.7,1.3-3,1.3s-2.2-0.4-3-1.3c-0.7-0.9-1.1-2-1.1-3.3V52.1z M91.4,52.3c0,1,0.2,1.7,0.6,2.4
			c0.4,0.6,1,0.9,1.8,0.9c0.8,0,1.4-0.3,1.8-0.9c0.4-0.6,0.6-1.4,0.6-2.4v-0.2c0-0.9-0.2-1.7-0.6-2.4c-0.4-0.6-1-0.9-1.8-0.9
			c-0.8,0-1.4,0.3-1.8,0.9c-0.4,0.6-0.6,1.4-0.6,2.4V52.3z"/>
		<path fill="#293338" d="M103.9,55.6c0.5,0,0.9-0.2,1.3-0.5c0.4-0.3,0.6-0.8,0.6-1.2h1.5l0,0.1c0,0.8-0.3,1.5-1,2.1
			c-0.7,0.6-1.5,0.9-2.4,0.9c-1.3,0-2.2-0.4-2.9-1.3c-0.7-0.9-1-1.9-1-3.2V52c0-1.3,0.3-2.3,1-3.2c0.7-0.9,1.7-1.3,2.9-1.3
			c1,0,1.8,0.3,2.5,0.9c0.6,0.6,1,1.4,0.9,2.3l0,0.1h-1.5c0-0.6-0.2-1-0.5-1.4s-0.8-0.6-1.4-0.6c-0.8,0-1.4,0.3-1.8,0.9
			s-0.6,1.4-0.6,2.3v0.4c0,0.9,0.2,1.7,0.5,2.3C102.5,55.3,103.1,55.6,103.9,55.6z"/>
		<path fill="#293338" d="M116.8,49h-3v7.8h-1.6V49h-2.9v-1.3h7.6V49z"/>
		<path fill="#293338" d="M124.5,56.7c-0.1-0.3-0.1-0.5-0.1-0.7c0-0.2,0-0.4-0.1-0.6c-0.3,0.4-0.7,0.8-1.2,1.1
			c-0.5,0.3-1,0.4-1.6,0.4c-0.9,0-1.7-0.2-2.1-0.7c-0.5-0.5-0.7-1.1-0.7-2c0-0.9,0.3-1.5,1-2s1.6-0.7,2.8-0.7h1.8v-0.9
			c0-0.5-0.2-0.9-0.5-1.3c-0.3-0.3-0.8-0.5-1.4-0.5c-0.5,0-1,0.1-1.3,0.4s-0.5,0.6-0.5,1l-1.6,0l0,0c0-0.7,0.3-1.3,0.9-1.8
			s1.5-0.8,2.5-0.8c1,0,1.8,0.3,2.5,0.8c0.6,0.5,0.9,1.3,0.9,2.2v4.3c0,0.3,0,0.6,0.1,0.9s0.1,0.6,0.2,0.9H124.5z M121.7,55.5
			c0.6,0,1.1-0.2,1.6-0.5c0.5-0.3,0.8-0.7,0.9-1.1v-1.5h-1.8c-0.7,0-1.2,0.2-1.6,0.5s-0.6,0.7-0.6,1.2c0,0.4,0.1,0.7,0.4,1
			C120.9,55.4,121.2,55.5,121.7,55.5z"/>
		<path fill="#293338" d="M128.8,56.7v-9h3.6c1.2,0,2.1,0.2,2.8,0.6c0.7,0.4,1,1,1,1.9c0,0.4-0.1,0.8-0.4,1.1
			c-0.3,0.3-0.6,0.6-1.1,0.8c0.6,0.1,1,0.4,1.3,0.8c0.3,0.4,0.5,0.8,0.5,1.3c0,0.8-0.3,1.5-0.9,1.9c-0.6,0.4-1.5,0.7-2.6,0.7H128.8z
			 M130.5,51.5h1.9c0.7,0,1.2-0.1,1.6-0.3c0.4-0.2,0.5-0.5,0.5-0.9c0-0.4-0.2-0.8-0.5-1c-0.4-0.2-0.9-0.3-1.6-0.3h-1.9V51.5z
			 M130.5,52.8v2.7h2.5c0.6,0,1.1-0.1,1.4-0.3c0.3-0.2,0.5-0.6,0.5-1c0-0.4-0.2-0.8-0.5-1c-0.3-0.2-0.8-0.4-1.4-0.4H130.5z"/>
		<path fill="#293338" d="M141.6,52.9h-0.8v3.8h-1.6v-9h1.6v3.8h0.7l3.2-3.8h1.9l0,0l-3.7,4.3l4,4.7l0,0h-2L141.6,52.9z"/>
		<path fill="#293338" d="M154.5,56.7c-0.1-0.3-0.1-0.5-0.1-0.7c0-0.2,0-0.4-0.1-0.6c-0.3,0.4-0.7,0.8-1.2,1.1
			c-0.5,0.3-1,0.4-1.6,0.4c-0.9,0-1.7-0.2-2.1-0.7c-0.5-0.5-0.7-1.1-0.7-2c0-0.9,0.3-1.5,1-2s1.6-0.7,2.8-0.7h1.8v-0.9
			c0-0.5-0.2-0.9-0.5-1.3c-0.3-0.3-0.8-0.5-1.4-0.5c-0.5,0-1,0.1-1.3,0.4s-0.5,0.6-0.5,1l-1.6,0l0,0c0-0.7,0.3-1.3,0.9-1.8
			s1.5-0.8,2.5-0.8c1,0,1.8,0.3,2.5,0.8c0.6,0.5,0.9,1.3,0.9,2.2v4.3c0,0.3,0,0.6,0.1,0.9s0.1,0.6,0.2,0.9H154.5z M151.7,55.5
			c0.6,0,1.1-0.2,1.6-0.5c0.5-0.3,0.8-0.7,0.9-1.1v-1.5h-1.8c-0.7,0-1.2,0.2-1.6,0.5s-0.6,0.7-0.6,1.2c0,0.4,0.1,0.7,0.4,1
			C150.9,55.4,151.2,55.5,151.7,55.5z"/>
		<path fill="#293338" d="M167.2,55.6c0.5,0,0.9-0.2,1.3-0.5c0.4-0.3,0.6-0.8,0.6-1.2h1.5l0,0.1c0,0.8-0.3,1.5-1,2.1
			c-0.7,0.6-1.5,0.9-2.4,0.9c-1.3,0-2.2-0.4-2.9-1.3c-0.7-0.9-1-1.9-1-3.2V52c0-1.3,0.3-2.3,1-3.2c0.7-0.9,1.7-1.3,2.9-1.3
			c1,0,1.8,0.3,2.5,0.9c0.6,0.6,1,1.4,0.9,2.3l0,0.1h-1.5c0-0.6-0.2-1-0.5-1.4s-0.8-0.6-1.4-0.6c-0.8,0-1.4,0.3-1.8,0.9
			s-0.6,1.4-0.6,2.3v0.4c0,0.9,0.2,1.7,0.5,2.3C165.8,55.3,166.4,55.6,167.2,55.6z"/>
		<path fill="#293338" d="M176.8,56.9c-1.3,0-2.3-0.4-3-1.2s-1.1-1.9-1.1-3.3V52c0-1.3,0.4-2.4,1.1-3.2c0.7-0.8,1.7-1.3,2.7-1.3
			c1.2,0,2.1,0.4,2.7,1.1c0.6,0.8,0.9,1.8,0.9,3v0.9h-5.8l0,0c0,0.9,0.2,1.6,0.6,2.2c0.4,0.6,1,0.8,1.8,0.8c0.6,0,1-0.1,1.5-0.2
			c0.4-0.2,0.8-0.4,1.1-0.7l0.6,1.1c-0.3,0.3-0.7,0.6-1.3,0.8C178.2,56.8,177.5,56.9,176.8,56.9z M176.5,48.8c-0.6,0-1,0.2-1.4,0.7
			s-0.6,1-0.7,1.7l0,0h4.1v-0.1c0-0.7-0.2-1.2-0.5-1.6C177.7,49,177.2,48.8,176.5,48.8z"/>
		<path fill="#293338" d="M189.4,49h-3v7.8h-1.6V49h-2.9v-1.3h7.6V49z"/>
		<path fill="#293338" d="M195.3,56.9c-1.3,0-2.3-0.4-3-1.2c-0.7-0.8-1.1-1.9-1.1-3.3V52c0-1.3,0.4-2.4,1.1-3.2
			c0.7-0.8,1.7-1.3,2.7-1.3c1.2,0,2.1,0.4,2.7,1.1s0.9,1.8,0.9,3v0.9h-5.8l0,0c0,0.9,0.2,1.6,0.6,2.2c0.4,0.6,1,0.8,1.8,0.8
			c0.6,0,1-0.1,1.5-0.2c0.4-0.2,0.8-0.4,1.1-0.7l0.6,1.1c-0.3,0.3-0.7,0.6-1.3,0.8C196.6,56.8,196,56.9,195.3,56.9z M195,48.8
			c-0.6,0-1,0.2-1.4,0.7c-0.4,0.4-0.6,1-0.7,1.7l0,0h4.1v-0.1c0-0.7-0.2-1.2-0.5-1.6C196.2,49,195.7,48.8,195,48.8z"/>
		<path fill="#293338" d="M201,56.7v-9h3.6c1.2,0,2.1,0.2,2.8,0.6c0.7,0.4,1,1,1,1.9c0,0.4-0.1,0.8-0.4,1.1s-0.6,0.6-1.1,0.8
			c0.6,0.1,1,0.4,1.3,0.8c0.3,0.4,0.5,0.8,0.5,1.3c0,0.8-0.3,1.5-0.9,1.9c-0.6,0.4-1.5,0.7-2.6,0.7H201z M202.6,51.5h1.9
			c0.7,0,1.2-0.1,1.6-0.3c0.4-0.2,0.5-0.5,0.5-0.9c0-0.4-0.2-0.8-0.5-1c-0.4-0.2-0.9-0.3-1.6-0.3h-1.9V51.5z M202.6,52.8v2.7h2.5
			c0.6,0,1.1-0.1,1.4-0.3c0.3-0.2,0.5-0.6,0.5-1c0-0.4-0.2-0.8-0.5-1c-0.3-0.2-0.8-0.4-1.4-0.4H202.6z"/>
		<path fill="#293338" d="M210.8,52.1c0-1.3,0.4-2.4,1.1-3.3c0.7-0.9,1.7-1.3,2.9-1.3c1.3,0,2.2,0.4,3,1.3c0.7,0.9,1.1,2,1.1,3.3
			v0.2c0,1.3-0.4,2.4-1.1,3.3c-0.7,0.9-1.7,1.3-3,1.3s-2.2-0.4-3-1.3c-0.7-0.9-1.1-2-1.1-3.3V52.1z M212.5,52.3c0,1,0.2,1.7,0.6,2.4
			c0.4,0.6,1,0.9,1.8,0.9c0.8,0,1.4-0.3,1.8-0.9c0.4-0.6,0.6-1.4,0.6-2.4v-0.2c0-0.9-0.2-1.7-0.6-2.4c-0.4-0.6-1-0.9-1.8-0.9
			c-0.8,0-1.4,0.3-1.8,0.9c-0.4,0.6-0.6,1.4-0.6,2.4V52.3z"/>
		<path fill="#293338" d="M227.2,49h-4.1v7.7h-1.6v-9h5.7V49z"/>
		<path fill="#293338" d="M228.5,52.1c0-1.3,0.4-2.4,1.1-3.3c0.7-0.9,1.7-1.3,2.9-1.3c1.3,0,2.2,0.4,3,1.3c0.7,0.9,1.1,2,1.1,3.3
			v0.2c0,1.3-0.4,2.4-1.1,3.3c-0.7,0.9-1.7,1.3-3,1.3s-2.2-0.4-3-1.3c-0.7-0.9-1.1-2-1.1-3.3V52.1z M230.1,52.3c0,1,0.2,1.7,0.6,2.4
			c0.4,0.6,1,0.9,1.8,0.9c0.8,0,1.4-0.3,1.8-0.9c0.4-0.6,0.6-1.4,0.6-2.4v-0.2c0-0.9-0.2-1.7-0.6-2.4c-0.4-0.6-1-0.9-1.8-0.9
			c-0.8,0-1.4,0.3-1.8,0.9c-0.4,0.6-0.6,1.4-0.6,2.4V52.3z"/>
		<path fill="#293338" d="M243.5,52.1c0-1.3,0.4-2.4,1.1-3.3c0.7-0.9,1.7-1.3,2.9-1.3c1.3,0,2.2,0.4,3,1.3c0.7,0.9,1.1,2,1.1,3.3
			v0.2c0,1.3-0.4,2.4-1.1,3.3c-0.7,0.9-1.7,1.3-3,1.3s-2.2-0.4-3-1.3c-0.7-0.9-1.1-2-1.1-3.3V52.1z M245.1,52.3c0,1,0.2,1.7,0.6,2.4
			c0.4,0.6,1,0.9,1.8,0.9c0.8,0,1.4-0.3,1.8-0.9c0.4-0.6,0.6-1.4,0.6-2.4v-0.2c0-0.9-0.2-1.7-0.6-2.4c-0.4-0.6-1-0.9-1.8-0.9
			c-0.8,0-1.4,0.3-1.8,0.9c-0.4,0.6-0.6,1.4-0.6,2.4V52.3z"/>
		<path fill="#293338" d="M258.1,47.5c1.2,0,2.1,0.4,2.7,1.3s1,2,1,3.3v0.2c0,1.3-0.4,2.4-1.1,3.3c-0.7,0.9-1.7,1.3-3,1.3
			s-2.2-0.4-3-1.3c-0.7-0.9-1.1-2-1.1-3.3v-0.2c0,0,0-0.1,0-0.1s0-0.1,0-0.1v-2c0-1.7,0.3-3,1-3.8s1.7-1.3,3-1.3
			c0.8,0,1.4-0.1,1.8-0.3s0.6-0.4,0.6-0.8h1.3l0,0c0,0.9-0.3,1.5-0.9,1.8c-0.6,0.4-1.5,0.5-2.7,0.6c-0.8,0-1.5,0.3-2,0.7
			c-0.5,0.4-0.8,1.1-0.7,2l0,0c0.3-0.4,0.7-0.8,1.3-1C256.9,47.7,257.5,47.5,258.1,47.5z M257.7,48.8c-0.8,0-1.4,0.3-1.8,0.9
			c-0.4,0.6-0.6,1.4-0.6,2.4v0.2c0,1,0.2,1.7,0.6,2.4c0.4,0.6,1,0.9,1.8,0.9c0.8,0,1.4-0.3,1.8-0.9c0.4-0.6,0.6-1.4,0.6-2.4v-0.2
			c0-0.9-0.2-1.7-0.6-2.4C259.1,49.1,258.5,48.8,257.7,48.8z"/>
		<path fill="#293338" d="M263.7,52.1c0-1.3,0.4-2.4,1.1-3.3c0.7-0.9,1.7-1.3,2.9-1.3c1.3,0,2.2,0.4,3,1.3c0.7,0.9,1.1,2,1.1,3.3
			v0.2c0,1.3-0.4,2.4-1.1,3.3c-0.7,0.9-1.7,1.3-3,1.3s-2.2-0.4-3-1.3c-0.7-0.9-1.1-2-1.1-3.3V52.1z M265.3,52.3c0,1,0.2,1.7,0.6,2.4
			c0.4,0.6,1,0.9,1.8,0.9c0.8,0,1.4-0.3,1.8-0.9c0.4-0.6,0.6-1.4,0.6-2.4v-0.2c0-0.9-0.2-1.7-0.6-2.4c-0.4-0.6-1-0.9-1.8-0.9
			c-0.8,0-1.4,0.3-1.8,0.9c-0.4,0.6-0.6,1.4-0.6,2.4V52.3z"/>
		<path fill="#293338" d="M282,52.6c0,1.3-0.3,2.4-0.9,3.2s-1.5,1.2-2.6,1.2c-0.6,0-1-0.1-1.5-0.3c-0.4-0.2-0.8-0.5-1.1-0.8v4.4
			h-1.6V47.7h1.3l0.3,1.2c0.3-0.4,0.7-0.8,1.1-1c0.4-0.2,1-0.3,1.5-0.3c1.1,0,2,0.4,2.6,1.3s0.9,2.1,0.9,3.5V52.6z M280.3,52.4
			c0-1-0.2-1.9-0.6-2.5s-1-1-1.8-1c-0.5,0-0.9,0.1-1.2,0.3c-0.3,0.2-0.6,0.5-0.8,0.9v4.4c0.2,0.4,0.5,0.7,0.8,0.9
			c0.3,0.2,0.7,0.3,1.2,0.3c0.8,0,1.4-0.3,1.8-0.9s0.6-1.3,0.6-2.2V52.4z"/>
		<path fill="#293338" d="M287.2,53.4l0.3,1.1h0l2.2-6.8h1.8l-3.8,10.4c-0.2,0.6-0.6,1.1-1,1.6s-1,0.7-1.7,0.7c-0.1,0-0.3,0-0.5,0
			c-0.2,0-0.4-0.1-0.5-0.1l0.2-1.3c0,0,0.1,0,0.3,0c0.2,0,0.4,0,0.4,0c0.4,0,0.6-0.2,0.9-0.5c0.2-0.3,0.4-0.7,0.6-1l0.4-0.9
			l-3.4-8.8h1.8L287.2,53.4z"/>
		<path fill="#293338" d="M293.3,55.4c0.4,0,0.7-0.4,0.9-1.1c0.2-0.7,0.3-1.8,0.4-3.3l0.2-3.4h6v7.7h1.2v4.3h-1.6v-3h-6.4v3h-1.6
			v-4.3H293.3z M296.4,51.1c-0.1,1.1-0.2,1.9-0.3,2.6s-0.3,1.3-0.5,1.7h3.7v-6.3h-2.8L296.4,51.1z"/>
		<path fill="#293338" d="M304,52.1c0-1.3,0.4-2.4,1.1-3.3c0.7-0.9,1.7-1.3,2.9-1.3c1.3,0,2.2,0.4,3,1.3c0.7,0.9,1.1,2,1.1,3.3v0.2
			c0,1.3-0.4,2.4-1.1,3.3c-0.7,0.9-1.7,1.3-3,1.3s-2.2-0.4-3-1.3c-0.7-0.9-1.1-2-1.1-3.3V52.1z M305.7,52.3c0,1,0.2,1.7,0.6,2.4
			c0.4,0.6,1,0.9,1.8,0.9c0.8,0,1.4-0.3,1.8-0.9c0.4-0.6,0.6-1.4,0.6-2.4v-0.2c0-0.9-0.2-1.7-0.6-2.4c-0.4-0.6-1-0.9-1.8-0.9
			c-0.8,0-1.4,0.3-1.8,0.9c-0.4,0.6-0.6,1.4-0.6,2.4V52.3z"/>
		<path fill="#293338" d="M314.6,56.7v-9h3.6c1.2,0,2.1,0.2,2.8,0.6c0.7,0.4,1,1,1,1.9c0,0.4-0.1,0.8-0.4,1.1s-0.6,0.6-1.1,0.8
			c0.6,0.1,1,0.4,1.3,0.8c0.3,0.4,0.5,0.8,0.5,1.3c0,0.8-0.3,1.5-0.9,1.9c-0.6,0.4-1.5,0.7-2.6,0.7H314.6z M316.3,51.5h1.9
			c0.7,0,1.2-0.1,1.6-0.3c0.4-0.2,0.5-0.5,0.5-0.9c0-0.4-0.2-0.8-0.5-1c-0.4-0.2-0.9-0.3-1.6-0.3h-1.9V51.5z M316.3,52.8v2.7h2.5
			c0.6,0,1.1-0.1,1.4-0.3c0.3-0.2,0.5-0.6,0.5-1c0-0.4-0.2-0.8-0.5-1c-0.3-0.2-0.8-0.4-1.4-0.4H316.3z"/>
		<path fill="#293338" d="M330.4,56.7c-0.1-0.3-0.1-0.5-0.1-0.7c0-0.2,0-0.4-0.1-0.6c-0.3,0.4-0.7,0.8-1.2,1.1
			c-0.5,0.3-1,0.4-1.6,0.4c-0.9,0-1.7-0.2-2.1-0.7c-0.5-0.5-0.7-1.1-0.7-2c0-0.9,0.3-1.5,1-2c0.7-0.5,1.6-0.7,2.8-0.7h1.8v-0.9
			c0-0.5-0.2-0.9-0.5-1.3c-0.3-0.3-0.8-0.5-1.4-0.5c-0.5,0-1,0.1-1.3,0.4c-0.3,0.3-0.5,0.6-0.5,1l-1.6,0l0,0c0-0.7,0.3-1.3,0.9-1.8
			c0.7-0.5,1.5-0.8,2.5-0.8c1,0,1.8,0.3,2.5,0.8c0.6,0.5,0.9,1.3,0.9,2.2v4.3c0,0.3,0,0.6,0,0.9c0,0.3,0.1,0.6,0.2,0.9H330.4z
			 M327.7,55.5c0.6,0,1.1-0.2,1.6-0.5c0.5-0.3,0.8-0.7,0.9-1.1v-1.5h-1.8c-0.7,0-1.2,0.2-1.6,0.5c-0.4,0.3-0.6,0.7-0.6,1.2
			c0,0.4,0.1,0.7,0.4,1C326.8,55.4,327.2,55.5,327.7,55.5z"/>
		<path fill="#293338" d="M342.1,56.7h-1.6v-3.8h-4v3.8h-1.6v-9h1.6v3.9h4v-3.9h1.6V56.7z"/>
		<path fill="#293338" d="M350.7,47.7h1.6v9h-1.6v-6.4l-0.1,0l-4,6.4H345v-9h1.6v6.4l0.1,0L350.7,47.7z"/>
		<path fill="#293338" d="M362.5,47.7v9h-1.6v-3.5h-2.2l-2.1,3.5h-1.8L357,53c-0.6-0.2-1-0.5-1.3-1c-0.3-0.4-0.5-1-0.5-1.5
			c0-0.8,0.3-1.5,0.9-2c0.6-0.5,1.5-0.8,2.5-0.8H362.5z M356.8,50.5c0,0.4,0.1,0.7,0.4,1c0.3,0.3,0.7,0.4,1.2,0.4h2.3v-3h-2.2
			c-0.6,0-1,0.1-1.4,0.4C357,49.7,356.8,50.1,356.8,50.5z"/>
	</g>
</g>
</svg>
