<?xml version="1.0" encoding="utf-8"?>
<!-- Generator: Adobe Illustrator 22.0.1, SVG Export Plug-In . SVG Version: 6.00 Build 0)  -->
<svg version="1.1" id="Capa_1" xmlns="http://www.w3.org/2000/svg" xmlns:xlink="http://www.w3.org/1999/xlink" x="0px" y="0px"
	 viewBox="-49 190.5 495.4 461.3" style="enable-background:new -49 190.5 495.4 461.3;" xml:space="preserve">
<g>
	<g>
		<g>
			<path d="M438.1,399L363,323.9v-86.7c0-15.7-12.7-28.4-28.4-28.4c-15.7,0-28.4,12.7-28.4,28.4v29.9l-55.9-55.9
				c-27.6-27.6-75.7-27.6-103.3,0.1L-40.7,399c-11.1,11.1-11.1,29.1,0,40.2c11.1,11.1,29.1,11.1,40.2,0l187.7-187.7
				c6.1-6.1,16.9-6.1,23,0l187.7,187.7c5.6,5.6,12.8,8.3,20.1,8.3c7.3,0,14.5-2.8,20.1-8.3C449.2,428.1,449.2,410.1,438.1,399z"/>
			<path d="M208.6,305.3c-5.5-5.5-14.3-5.5-19.7,0L23.7,470.4c-2.6,2.6-4.1,6.2-4.1,9.9v120.4c0,28.3,22.9,51.2,51.2,51.2h81.8
				V525.2h92.3v126.6h81.8c28.3,0,51.2-22.9,51.2-51.2V480.3c0-3.7-1.5-7.3-4.1-9.9L208.6,305.3z"/>
		</g>
	</g>
</g>
</svg>
