<?xml version="1.0" encoding="utf-8"?>
<!-- Generator: Adobe Illustrator 22.0.1, SVG Export Plug-In . SVG Version: 6.00 Build 0)  -->
<svg version="1.1" id="Layer_1" xmlns="http://www.w3.org/2000/svg" xmlns:xlink="http://www.w3.org/1999/xlink" x="0px" y="0px"
	 viewBox="-6.5 164.9 442.9 512" enable-background="new -6.5 164.9 442.9 512" xml:space="preserve">
<g>
	<g>
		<path d="M424.4,213.1H286.8v-24.3c0-13.2-10.7-24-23.9-24h-95.8c-13.2,0-23.9,10.7-23.9,24v24.3H5.6c-6.7,0-12,5.4-12,12
			s5.4,12,12,12h22.3l15.2,396.4c0.9,24.3,20.7,43.3,45,43.3h253.8c24.3,0,44-19,45-43.3l15.2-396.4h22.3c6.7,0,12-5.4,12-12
			C436.5,218.5,431.1,213.1,424.4,213.1z M167.3,189h95.4v24.1h-95.4V189z M362.8,632.7c-0.4,11.3-9.6,20.1-20.9,20.1H88.1
			c-11.3,0-20.4-8.8-20.9-20.1L52,237.2h326L362.8,632.7z"/>
	</g>
</g>
<g>
	<g>
		<path d="M141.6,346.5c-0.1-6.6-5.5-11.8-12-11.8c-0.1,0-0.2,0-0.2,0c-6.7,0.1-11.9,5.6-11.8,12.3l3.8,196.6
			c0.1,6.6,5.5,11.8,12,11.8c0.1,0,0.2,0,0.2,0c6.7-0.1,11.9-5.6,11.8-12.3L141.6,346.5z"/>
	</g>
</g>
<g>
	<g>
		<path d="M215,334.6c-6.7,0-12,5.4-12,12v196.6c0,6.7,5.4,12,12,12c6.7,0,12-5.4,12-12V346.7C227,340,221.7,334.6,215,334.6z"/>
	</g>
</g>
<g>
	<g>
		<path d="M300.6,334.6c-6.6-0.1-12.2,5.2-12.3,11.8l-3.8,196.6c-0.1,6.7,5.2,12.1,11.8,12.3c0.1,0,0.2,0,0.2,0
			c6.5,0,11.9-5.2,12-11.8l3.8-196.6C312.6,340.3,307.3,334.8,300.6,334.6z"/>
	</g>
</g>
</svg>
