<?xml version="1.0" encoding="utf-8"?>
<!-- Generator: Adobe Illustrator 22.1.0, SVG Export Plug-In . SVG Version: 6.00 Build 0)  -->
<svg version="1.1" id="Capa_1" xmlns="http://www.w3.org/2000/svg" xmlns:xlink="http://www.w3.org/1999/xlink" x="0px" y="0px"
	 viewBox="-268 392.9 55 57" style="enable-background:new -268 392.9 55 57;" xml:space="preserve">
<path d="M-213.9,444.8l-13.6-14.1c3.5-4.1,5.4-9.4,5.4-14.8c0-12.7-10.3-23-23-23s-23,10.3-23,23s10.3,23,23,23
	c4.8,0,9.3-1.4,13.2-4.2l13.7,14.2c0.6,0.6,1.3,0.9,2.2,0.9c0.8,0,1.5-0.3,2.1-0.8C-212.7,447.9-212.7,446-213.9,444.8z M-245,398.9
	c9.4,0,17,7.6,17,17s-7.6,17-17,17s-17-7.6-17-17S-254.4,398.9-245,398.9z"/>
</svg>
