<?xml version="1.0" encoding="utf-8"?>
<!-- Generator: Adobe Illustrator 22.0.1, SVG Export Plug-In . SVG Version: 6.00 Build 0)  -->
<svg version="1.1" id="Capa_1" xmlns="http://www.w3.org/2000/svg" xmlns:xlink="http://www.w3.org/1999/xlink" x="0px" y="0px"
	 viewBox="-36.8 177.3 452.2 486.6" style="enable-background:new -36.8 177.3 452.2 486.6;" xml:space="preserve">
<g>
	<path d="M92.1,497.7h268.1c30.4,0,55.2-24.8,55.2-55.2V329.7c0-0.1,0-0.3,0-0.4c0-0.3,0-0.5,0-0.8c0-0.2,0-0.4-0.1-0.6
		c0-0.2-0.1-0.5-0.1-0.7c0-0.2-0.1-0.4-0.1-0.6c-0.1-0.2-0.1-0.4-0.2-0.7c-0.1-0.2-0.1-0.4-0.2-0.6s-0.1-0.4-0.2-0.6
		s-0.2-0.4-0.3-0.7c-0.1-0.2-0.2-0.4-0.3-0.5c-0.1-0.2-0.2-0.4-0.3-0.6c-0.1-0.2-0.2-0.3-0.3-0.5c-0.1-0.2-0.3-0.4-0.4-0.6
		c-0.1-0.2-0.2-0.3-0.4-0.5c-0.1-0.2-0.3-0.3-0.4-0.5c-0.1-0.2-0.3-0.3-0.4-0.5c-0.1-0.2-0.3-0.3-0.4-0.4c-0.2-0.2-0.3-0.3-0.5-0.5
		c-0.2-0.1-0.3-0.3-0.5-0.4s-0.4-0.3-0.6-0.4s-0.3-0.2-0.5-0.3s-0.4-0.2-0.6-0.4c-0.2-0.1-0.4-0.2-0.6-0.3s-0.4-0.2-0.6-0.3
		s-0.4-0.2-0.6-0.3s-0.4-0.1-0.6-0.2c-0.2-0.1-0.5-0.2-0.7-0.2s-0.4-0.1-0.5-0.1c-0.3-0.1-0.5-0.1-0.8-0.1c-0.1,0-0.2-0.1-0.4-0.1
		L64,269.4V222c0-0.5,0-1-0.1-1.4c0-0.1,0-0.2-0.1-0.4c0-0.3-0.1-0.6-0.1-0.9c-0.1-0.3-0.1-0.5-0.2-0.8c0-0.2-0.1-0.3-0.1-0.5
		c-0.1-0.3-0.2-0.6-0.3-0.9c0-0.1-0.1-0.3-0.1-0.4c-0.1-0.3-0.2-0.5-0.4-0.8c-0.1-0.1-0.1-0.3-0.2-0.4c-0.1-0.2-0.2-0.4-0.4-0.6
		c-0.1-0.2-0.2-0.3-0.3-0.5s-0.2-0.3-0.3-0.5s-0.3-0.4-0.4-0.6c-0.1-0.1-0.2-0.2-0.3-0.3c-0.2-0.2-0.4-0.4-0.6-0.6
		c-0.1-0.1-0.2-0.2-0.3-0.3c-0.2-0.2-0.4-0.4-0.7-0.6c-0.1-0.1-0.3-0.2-0.4-0.3c-0.2-0.2-0.4-0.3-0.6-0.5c-0.3-0.2-0.6-0.4-0.8-0.5
		c-0.1-0.1-0.2-0.1-0.3-0.2c-0.4-0.2-0.9-0.4-1.3-0.6l-73.7-31c-6.9-2.9-14.8,0.3-17.7,7.2c-2.9,6.9,0.3,14.8,7.2,17.7l65.4,27.6
		v61.2v9.7v74.4v66.5v84c0,28,21,51.2,48.1,54.7c-4.9,8.2-7.8,17.8-7.8,28c0,30.1,24.5,54.5,54.5,54.5s54.5-24.5,54.5-54.5
		c0-10-2.7-19.5-7.5-27.5h121.4c-4.8,8.1-7.5,17.5-7.5,27.5c0,30.1,24.5,54.5,54.5,54.5s54.5-24.5,54.5-54.5s-24.5-54.5-54.5-54.5
		h-255c-15.6,0-28.2-12.7-28.2-28.2v-36.6C72.1,494.9,81.8,497.7,92.1,497.7z M159.3,609.3c0,15.2-12.4,27.5-27.5,27.5
		s-27.5-12.4-27.5-27.5c0-15.1,12.4-27.5,27.5-27.5S159.3,594.1,159.3,609.3z M374.7,609.3c0,15.2-12.4,27.5-27.5,27.5
		s-27.5-12.4-27.5-27.5c0-15.1,12.4-27.5,27.5-27.5S374.7,594.1,374.7,609.3z M360.2,470.7H92.1c-15.6,0-28.2-12.7-28.2-28.2V376
		v-74.4v-5l324.5,44.7v101.1C388.4,458.1,375.7,470.7,360.2,470.7z"/>
</g>
</svg>
