<?xml version="1.0" encoding="utf-8"?>
<!-- Generator: Adobe Illustrator 22.0.1, SVG Export Plug-In . SVG Version: 6.00 Build 0)  -->
<svg version="1.1" id="Слой_1" xmlns="http://www.w3.org/2000/svg" xmlns:xlink="http://www.w3.org/1999/xlink" x="0px" y="0px"
	 viewBox="-226.6 363.3 116.3 116.1" style="enable-background:new -226.6 363.3 116.3 116.1;" xml:space="preserve">
<g>
	<g>
		<path d="M-144.4,451.3c0.8,0.8,1.8,1.2,2.9,1.2c1.1,0,2.1-0.4,2.9-1.2l27-27c0.2-0.2,0.4-0.4,0.5-0.6c0,0,0.1-0.1,0.1-0.2
			c0.1-0.2,0.2-0.4,0.3-0.5c0-0.1,0-0.2,0.1-0.2c0.1-0.2,0.1-0.3,0.2-0.5c0.1-0.3,0.1-0.5,0.1-0.8c0-0.3,0-0.5-0.1-0.8
			c0-0.2-0.1-0.4-0.2-0.5c0-0.1,0-0.2-0.1-0.2c-0.1-0.2-0.2-0.4-0.3-0.6c0,0,0-0.1-0.1-0.1c-0.1-0.2-0.3-0.4-0.5-0.6l-27-27
			c-1.6-1.6-4.2-1.6-5.8,0c-1.6,1.6-1.6,4.2,0,5.8l20,20h-71.1c-2.3,0-4.1,1.8-4.1,4.1c0,2.3,1.8,4.1,4.1,4.1h71.1l-20,20
			C-146,447.1-146,449.7-144.4,451.3z"/>
		<path d="M-222.5,479.4h54c2.3,0,4.1-1.8,4.1-4.1V435c0-2.3-1.8-4.1-4.1-4.1c-2.3,0-4.1,1.8-4.1,4.1v36.2h-45.8v-99.7h45.8v36.2
			c0,2.3,1.8,4.1,4.1,4.1s4.1-1.8,4.1-4.1v-40.3c0-2.3-1.8-4.1-4.1-4.1h-54c-2.3,0-4.1,1.8-4.1,4.1v107.9
			C-226.5,477.6-224.7,479.4-222.5,479.4z"/>
	</g>
</g>
</svg>
