<?xml version="1.0" encoding="utf-8"?>
<!-- Generator: Adobe Illustrator 22.0.1, SVG Export Plug-In . SVG Version: 6.00 Build 0)  -->
<svg version="1.1" id="Слой_1" xmlns="http://www.w3.org/2000/svg" xmlns:xlink="http://www.w3.org/1999/xlink" x="0px" y="0px"
	 viewBox="0 0 444.5 639.4" enable-background="new 0 0 444.5 639.4" xml:space="preserve">
<g>
	<path d="M222.2,0C99.7,0,0,99.7,0,222.2c0,154,222.5,417.1,222.5,417.1s222-270.7,222-417.1C444.5,99.7,344.8,0,222.2,0
		 M289.3,287.3c-18.5,18.5-42.8,27.7-67.1,27.7c-24.3,0-48.6-9.2-67.1-27.7c-37-37-37-97.1,0-134.1c17.9-17.9,41.7-27.8,67.1-27.8
		c25.3,0,49.1,9.9,67.1,27.8C326.3,190.2,326.3,250.3,289.3,287.3"/>
</g>
</svg>
