<?xml version="1.0" encoding="utf-8"?>
<!-- Generator: Adobe Illustrator 22.0.1, SVG Export Plug-In . SVG Version: 6.00 Build 0)  -->
<svg version="1.1" id="Слой_1" xmlns="http://www.w3.org/2000/svg" xmlns:xlink="http://www.w3.org/1999/xlink" x="0px" y="0px"
	 viewBox="0 0 512 512" enable-background="new 0 0 512 512" xml:space="preserve">
<g>
	<path d="M256,91c-91,0-165,74-165,165s74,165,165,165s165-74,165-165S347,91,256,91 M346,271h-75v15c0,8.3-6.7,15-15,15
		c-8.3,0-15-6.7-15-15v-15h-15c-8.3,0-15-6.7-15-15c0-8.3,6.7-15,15-15h15V136c0-8.3,6.7-15,15-15c8.3,0,15,6.7,15,15v105h75
		c8.3,0,15,6.7,15,15C361,264.3,354.3,271,346,271"/>
	<path d="M256,0C115.4,0,0,115.4,0,256s115.4,256,256,256s256-115.4,256-256S396.6,0,256,0 M256,451c-107.5,0-195-87.5-195-195
		S148.5,61,256,61s195,87.5,195,195S363.5,451,256,451"/>
</g>
</svg>
