<?xml version="1.0" encoding="utf-8"?>
<!-- Generator: Adobe Illustrator 22.1.0, SVG Export Plug-In . SVG Version: 6.00 Build 0)  -->
<svg version="1.1" id="Capa_1" xmlns="http://www.w3.org/2000/svg" xmlns:xlink="http://www.w3.org/1999/xlink" x="0px" y="0px"
	 viewBox="-4.2 176.9 391.4 489" style="enable-background:new -4.2 176.9 391.4 489;" xml:space="preserve">
<g>
	<path d="M387.1,599.6l-28-315.3c-0.6-7-6.5-12.3-13.4-12.3h-57.6c-0.8-52.6-43.8-95.1-96.6-95.1S95.7,219.4,94.9,272H37.3
		c-7,0-12.8,5.3-13.4,12.3l-28,315.3c0,0.4-0.1,0.8-0.1,1.2c0,35.9,32.9,65.1,73.4,65.1h244.6c40.5,0,73.4-29.2,73.4-65.1
		C387.2,600.4,387.2,600,387.1,599.6z M191.5,203.9c37.9,0,68.8,30.4,69.6,68.1H121.9C122.7,234.3,153.6,203.9,191.5,203.9z
		 M313.8,638.9H69.2c-25.4,0-46-16.8-46.4-37.5l26.8-302.3h45.2v41c0,7.5,6,13.5,13.5,13.5s13.5-6,13.5-13.5v-41h139.3v41
		c0,7.5,6,13.5,13.5,13.5s13.5-6,13.5-13.5v-41h45.2l26.9,302.3C359.8,622.1,339.1,638.9,313.8,638.9z"/>
</g>
</svg>
