<?xml version="1.0" encoding="utf-8"?>
<!-- Generator: Adobe Illustrator 22.0.1, SVG Export Plug-In . SVG Version: 6.00 Build 0)  -->
<svg version="1.1" id="Режим_изоляции"
	 xmlns="http://www.w3.org/2000/svg" xmlns:xlink="http://www.w3.org/1999/xlink" x="0px" y="0px" viewBox="-69.5 358.6 121.5 158"
	 style="enable-background:new -69.5 358.6 121.5 158;" xml:space="preserve">

	<path d="M-17.7,409c-1.7-1.1-2.9-2.9-3.6-5.3c-0.7-2.4-1.1-5.6-1.1-9.6v-5.5c0-4,0.4-7.3,1.2-9.8c0.8-2.5,2.1-4.2,3.8-5.4
		c1.7-1.1,4-1.7,6.8-1.7c2.8,0,5,0.6,6.7,1.7c1.7,1.1,2.9,2.9,3.7,5.4c0.8,2.4,1.2,5.7,1.2,9.7v5.5c0,4-0.4,7.2-1.1,9.7
		c-0.8,2.4-2,4.2-3.7,5.3c-1.7,1.1-4,1.7-6.9,1.7C-13.7,410.7-16,410.1-17.7,409z M-8.2,403.1c0.5-1.2,0.7-3.2,0.7-6v-11.7
		c0-2.7-0.2-4.7-0.7-5.9c-0.5-1.2-1.3-1.9-2.5-1.9c-1.1,0-2,0.6-2.4,1.9c-0.5,1.2-0.7,3.2-0.7,5.9v11.7c0,2.8,0.2,4.8,0.7,6
		c0.4,1.2,1.3,1.8,2.5,1.8C-9.5,404.9-8.7,404.3-8.2,403.1z"/>
	<path d="M-38.3,393.4l-9.6-34.8h8.4l3.4,15.8c0.9,3.9,1.5,7.2,1.9,9.9h0.2c0.3-2,0.9-5.3,1.9-9.9l3.5-15.8h8.4l-9.8,34.8v16.7
		h-8.3V393.4z"/>
	<path d="M28.4,372.5v37.6h-6.6l-0.7-4.6h-0.2c-1.8,3.5-4.5,5.2-8.1,5.2c-2.5,0-4.3-0.8-5.5-2.5c-1.2-1.6-1.8-4.2-1.8-7.7v-28.1
		h8.5v27.6c0,1.7,0.2,2.9,0.6,3.6c0.4,0.7,1,1.1,1.8,1.1c0.7,0,1.4-0.2,2.1-0.7c0.7-0.4,1.2-1,1.5-1.7v-29.9H28.4z"/>

	<path d="M4.2,466.8c-0.4-0.6-1-0.9-1.8-0.9c-0.7,0-1.4,0.3-2.1,0.9c-0.6,0.6-1.1,1.4-1.3,2.3v19.5c0.3,0.6,0.8,1,1.3,1.3
		c0.5,0.3,1.1,0.4,1.8,0.4c0.8,0,1.5-0.3,2-0.9c0.5-0.6,0.8-1.6,1-3c0.2-1.4,0.3-3.4,0.3-5.9v-4.4c0-2.7-0.1-4.8-0.3-6.2
		C4.9,468.4,4.6,467.4,4.2,466.8z"/>
	<path d="M28.7,466.3c-0.4-0.5-1-0.7-1.8-0.7c-0.8,0-1.4,0.2-1.8,0.7c-0.4,0.5-0.7,1.3-0.8,2.4c-0.1,1.1-0.2,2.8-0.2,5v2.5h5.7v-2.5
		c0-2.2-0.1-3.9-0.2-5C29.4,467.6,29.1,466.8,28.7,466.3z"/>
	<path d="M49.4,444.9c-1.4-5.2-5.5-9.3-10.7-10.7c-9.5-2.5-47.5-2.5-47.5-2.5s-38,0-47.5,2.5c-5.2,1.4-9.3,5.5-10.7,10.7
		c-2.5,9.5-2.5,29.2-2.5,29.2s0,19.8,2.5,29.2c1.4,5.2,5.5,9.3,10.7,10.7c9.5,2.5,47.5,2.5,47.5,2.5s38,0,47.5-2.5
		c5.2-1.4,9.3-5.5,10.7-10.7c2.5-9.5,2.5-29.2,2.5-29.2S51.9,454.3,49.4,444.9z M-39.4,495.4H-47v-40.8h-7.7v-6.2h22.9v6.2h-7.7
		V495.4z M-13.1,495.4h-6l-0.7-4.2H-20c-1.6,3.2-4.1,4.8-7.4,4.8c-2.3,0-4-0.7-5-2.2c-1.1-1.5-1.6-3.8-1.6-7V461h7.7v25.2
		c0,1.5,0.2,2.6,0.5,3.3c0.3,0.7,0.9,1,1.7,1c0.7,0,1.3-0.2,1.9-0.6c0.6-0.4,1.1-0.9,1.4-1.6V461h7.7V495.4z M13.2,481
		c0,5.1-0.6,8.9-1.8,11.3c-1.2,2.4-3.2,3.6-5.8,3.6c-1.5,0-2.8-0.3-4-1c-1.2-0.7-2.1-1.6-2.7-2.7h-0.2l-0.8,3.2h-6.4v-48.7H-1
		l0,18.1H-1c0.7-1.3,1.6-2.4,2.9-3.2c1.2-0.8,2.6-1.2,4-1.2c1.8,0,3.3,0.5,4.3,1.5c1,1,1.8,2.5,2.3,4.7c0.5,2.2,0.7,5.2,0.7,9V481z
		 M37,480.8H24.1v1.7c0,2.2,0.1,3.9,0.2,5c0.1,1.1,0.4,1.9,0.8,2.4c0.4,0.5,1,0.8,1.9,0.8c1.2,0,2-0.4,2.4-1.3
		c0.4-0.9,0.7-2.4,0.7-4.5l6.7,0.4c0,0.3,0.1,0.7,0.1,1.2c0,3.2-0.9,5.5-2.6,7.1c-1.7,1.6-4.2,2.4-7.4,2.4c-3.8,0-6.5-1.2-8-3.6
		c-1.5-2.4-2.3-6.1-2.3-11.1v-6c0-5.2,0.8-8.9,2.4-11.3c1.6-2.4,4.3-3.6,8.1-3.6c2.7,0,4.7,0.5,6.1,1.5c1.4,1,2.4,2.5,3,4.5
		c0.6,2.1,0.9,4.9,0.9,8.5V480.8z"/>

</svg>
