<svg xmlns="http://www.w3.org/2000/svg" style="display: none;">

    <symbol id="icon-logo" viewBox="0 0 364.2 61.4">
        <g>
            <g>
                <path d="M53.4,27.4c-6.1,3.2-9.2,4.4-10.4,2.9C41.2,27.9,56.4,7,52.4,5.9c-2-0.5-18.5,11.5-22.5,14.2
			c-3.7,2.6-7.3,5.4-10,9l-19.3,23c-1.5,1.9-0.1,4.6,2.2,4.6h3.4c0.2,0,1.7,0,2.3,0l19.2,0l3.1,0c2.6,0,4-2.9,2.4-5l-1-1.2l-4.3-5
			c-1.2-1.6-3.6-1.6-4.8,0c0.2-0.2-1.3,1.4-2.5,2.8c-0.8,0.9-1.7,1.9-3.1,1.9c-1.6,0-2.9-1.3-2.9-2.9c0-0.8,0.5-1.5,0.9-2.1l7.3-8.5
			c1.4-1.7,4-1.7,5.4,0l11.6,14.1l3.6,4.6c0.3,0.4,1.1,0.9,1.6,1.1c2.1,0.5,3.7-0.4,4.5-1.8c0,0,11.3-26,11.3-27.6
			C60.7,25.5,59.5,24.2,53.4,27.4z"/>
            </g>
            <g>
                <path d="M78.7,21.5c0-5.2,1.3-9.1,3.9-11.5c2.6-2.5,6.5-3.7,11.7-3.7H99c3.1,0,5.9,0.7,8.4,2.2
			c2.5,1.5,3.7,3.3,3.7,5.5c0,0.8-0.2,1.4-0.7,1.8c-0.5,0.4-1,0.5-1.4,0.5h-2.5c-1.2,0-2.2-0.7-2.8-2c-0.7-1.4-2.5-2.1-5.3-2.1h-3.7
			c-3.1,0-5.2,0.7-6.2,2s-1.6,3.8-1.6,7.3c0,3.5,0.5,5.9,1.5,7.3c1,1.3,2.7,2,5.3,2h4.3c2.3,0,3.9-0.4,4.8-1.3
			c1-0.8,1.5-2.1,1.5-3.6h-4.8c-0.5,0-1-0.2-1.4-0.6c-0.4-0.4-0.6-0.9-0.6-1.4v-1.7c0-0.6,0.2-1,0.6-1.4c0.4-0.4,0.9-0.6,1.4-0.6
			h10.6c0.5,0,1,0.2,1.4,0.6c0.4,0.4,0.6,0.9,0.6,1.4v2.3c0,3.9-1.2,7-3.5,9.1c-2.4,2.1-5.8,3.2-10.4,3.2h-4.7
			c-4.7,0-8.2-1.3-10.7-3.8C79.9,30.5,78.7,26.7,78.7,21.5z"/>
                <path d="M116,34.6V8.5c0-0.5,0.2-1,0.6-1.4c0.4-0.4,0.9-0.6,1.4-0.6h4c0.5,0,1,0.2,1.4,0.6
			c0.4,0.4,0.6,0.9,0.6,1.4v10.1h4.5c1.2,0,2.3-0.3,3.2-1c0.9-0.7,1.8-1.8,2.7-3.3l3.3-5.8c0.7-1.3,1.8-2,3-2h4.9
			c0.5,0,0.9,0.2,1,0.6c0,0.1,0,0.2,0,0.3c0,0.3-0.1,0.7-0.4,1.2l-4.6,8.3c-0.7,1.2-1.4,2.2-2.2,3c-0.8,0.8-1.9,1.3-3.2,1.7
			c0.9,0.2,1.9,0.8,2.8,1.7s1.8,2,2.6,3.2l5.3,8.4c0.2,0.4,0.4,0.8,0.4,1.1c0,0.1,0,0.2-0.1,0.4c-0.1,0.4-0.5,0.6-1,0.6h-4.8
			c-0.5,0-1.1-0.2-1.8-0.6c-0.6-0.4-1.1-0.9-1.5-1.4l-3.7-5.9c-0.9-1.4-1.8-2.5-2.7-3.2c-0.9-0.7-2-1.1-3.2-1.1H124v10.2
			c0,0.5-0.2,1-0.6,1.4c-0.4,0.4-0.9,0.6-1.4,0.6h-4c-0.5,0-1-0.2-1.4-0.6S116,35.1,116,34.6z"/>
                <path d="M148.1,24.6v-2.5c0-0.4,0.1-0.7,0.4-0.9c0.2-0.2,0.5-0.4,0.9-0.4h15.9c0.4,0,0.7,0.1,0.9,0.4
			s0.4,0.6,0.4,0.9v2.5c0,0.4-0.1,0.7-0.4,0.9s-0.6,0.4-0.9,0.4h-15.9c-0.4,0-0.7-0.1-0.9-0.4S148.1,25,148.1,24.6z"/>
                <path d="M167.9,34.7l5.3-20c1.4-5.5,6.1-8.2,14-8.2h11.3c0.5,0,1,0.2,1.3,0.6c0.3,0.4,0.5,0.8,0.5,1.4v26.3
			c0,0.5-0.2,1-0.6,1.4c-0.4,0.4-0.9,0.6-1.4,0.6h-4c-0.6,0-1-0.2-1.4-0.6c-0.4-0.4-0.6-0.8-0.6-1.4v-5.3h-14.9l-1.4,5.3
			c-0.1,0.6-0.5,1-1,1.4c-0.5,0.4-1,0.6-1.6,0.6h-4.2c-0.5,0-1-0.2-1.2-0.6c-0.2-0.3-0.3-0.5-0.3-0.9
			C167.9,35,167.9,34.9,167.9,34.7z M179.1,23.4h13.3v-11h-6c-1.3,0-2.5,0.4-3.5,1.1c-1,0.8-1.7,1.8-2,3.1L179.1,23.4z"/>
                <path d="M206.3,34.6V8.5c0-0.6,0.2-1.1,0.6-1.5c0.4-0.4,0.8-0.6,1.4-0.6h8.6c0.6,0,1.1,0.2,1.6,0.6
			c0.5,0.4,0.8,0.9,1,1.4l6.3,18l6.3-18c0.2-0.5,0.5-1,1-1.4c0.5-0.4,1-0.6,1.6-0.6h8.6c0.6,0,1,0.2,1.4,0.6
			c0.4,0.4,0.6,0.9,0.6,1.5v26.1c0,0.6-0.2,1.1-0.6,1.4c-0.4,0.4-0.9,0.6-1.4,0.6h-3.9c-0.6,0-1-0.2-1.4-0.6
			c-0.4-0.4-0.6-0.9-0.6-1.4V14l-7.4,20.7c-0.2,0.5-0.5,1-1,1.3c-0.5,0.4-1,0.6-1.6,0.6h-3c-0.5,0-1.1-0.2-1.5-0.6
			c-0.5-0.4-0.8-0.8-1-1.3L214.3,14v20.5c0,0.6-0.2,1.1-0.6,1.4c-0.4,0.4-0.9,0.6-1.4,0.6h-3.9c-0.6,0-1-0.2-1.4-0.6
			C206.5,35.6,206.3,35.2,206.3,34.6z"/>
                <path fill="#293338" d="M250.8,34.7V8.5c0-0.6,0.2-1.1,0.6-1.5c0.4-0.4,0.9-0.6,1.4-0.6h4c0.5,0,1,0.2,1.4,0.6
			c0.4,0.4,0.6,0.9,0.6,1.5v22.2h18.3c0.5,0,1,0.2,1.4,0.6c0.4,0.4,0.6,0.9,0.6,1.4v2c0,0.5-0.2,1-0.6,1.4c-0.4,0.4-0.9,0.6-1.4,0.6
			h-24.2c-0.5,0-1-0.2-1.4-0.6C251,35.7,250.8,35.2,250.8,34.7z"/>
            </g>
            <g>
                <path d="M87.2,56.7h-1.6V49h-4v7.7h-1.6v-9h7.3V56.7z"/>
                <path d="M89.7,52.1c0-1.3,0.4-2.4,1.1-3.3c0.7-0.9,1.7-1.3,2.9-1.3c1.3,0,2.2,0.4,3,1.3c0.7,0.9,1.1,2,1.1,3.3v0.2
			c0,1.3-0.4,2.4-1.1,3.3s-1.7,1.3-3,1.3s-2.2-0.4-3-1.3c-0.7-0.9-1.1-2-1.1-3.3V52.1z M91.4,52.3c0,1,0.2,1.7,0.6,2.4
			c0.4,0.6,1,0.9,1.8,0.9c0.8,0,1.4-0.3,1.8-0.9c0.4-0.6,0.6-1.4,0.6-2.4v-0.2c0-0.9-0.2-1.7-0.6-2.4c-0.4-0.6-1-0.9-1.8-0.9
			c-0.8,0-1.4,0.3-1.8,0.9c-0.4,0.6-0.6,1.4-0.6,2.4V52.3z"/>
                <path d="M103.9,55.6c0.5,0,0.9-0.2,1.3-0.5c0.4-0.3,0.6-0.8,0.6-1.2h1.5l0,0.1c0,0.8-0.3,1.5-1,2.1
			c-0.7,0.6-1.5,0.9-2.4,0.9c-1.3,0-2.2-0.4-2.9-1.3c-0.7-0.9-1-1.9-1-3.2V52c0-1.3,0.3-2.3,1-3.2c0.7-0.9,1.7-1.3,2.9-1.3
			c1,0,1.8,0.3,2.5,0.9c0.6,0.6,1,1.4,0.9,2.3l0,0.1h-1.5c0-0.6-0.2-1-0.5-1.4s-0.8-0.6-1.4-0.6c-0.8,0-1.4,0.3-1.8,0.9
			s-0.6,1.4-0.6,2.3v0.4c0,0.9,0.2,1.7,0.5,2.3C102.5,55.3,103.1,55.6,103.9,55.6z"/>
                <path d="M116.8,49h-3v7.8h-1.6V49h-2.9v-1.3h7.6V49z"/>
                <path d="M124.5,56.7c-0.1-0.3-0.1-0.5-0.1-0.7c0-0.2,0-0.4-0.1-0.6c-0.3,0.4-0.7,0.8-1.2,1.1
			c-0.5,0.3-1,0.4-1.6,0.4c-0.9,0-1.7-0.2-2.1-0.7c-0.5-0.5-0.7-1.1-0.7-2c0-0.9,0.3-1.5,1-2s1.6-0.7,2.8-0.7h1.8v-0.9
			c0-0.5-0.2-0.9-0.5-1.3c-0.3-0.3-0.8-0.5-1.4-0.5c-0.5,0-1,0.1-1.3,0.4s-0.5,0.6-0.5,1l-1.6,0l0,0c0-0.7,0.3-1.3,0.9-1.8
			s1.5-0.8,2.5-0.8c1,0,1.8,0.3,2.5,0.8c0.6,0.5,0.9,1.3,0.9,2.2v4.3c0,0.3,0,0.6,0.1,0.9s0.1,0.6,0.2,0.9H124.5z M121.7,55.5
			c0.6,0,1.1-0.2,1.6-0.5c0.5-0.3,0.8-0.7,0.9-1.1v-1.5h-1.8c-0.7,0-1.2,0.2-1.6,0.5s-0.6,0.7-0.6,1.2c0,0.4,0.1,0.7,0.4,1
			C120.9,55.4,121.2,55.5,121.7,55.5z"/>
                <path d="M128.8,56.7v-9h3.6c1.2,0,2.1,0.2,2.8,0.6c0.7,0.4,1,1,1,1.9c0,0.4-0.1,0.8-0.4,1.1
			c-0.3,0.3-0.6,0.6-1.1,0.8c0.6,0.1,1,0.4,1.3,0.8c0.3,0.4,0.5,0.8,0.5,1.3c0,0.8-0.3,1.5-0.9,1.9c-0.6,0.4-1.5,0.7-2.6,0.7H128.8z
			 M130.5,51.5h1.9c0.7,0,1.2-0.1,1.6-0.3c0.4-0.2,0.5-0.5,0.5-0.9c0-0.4-0.2-0.8-0.5-1c-0.4-0.2-0.9-0.3-1.6-0.3h-1.9V51.5z
			 M130.5,52.8v2.7h2.5c0.6,0,1.1-0.1,1.4-0.3c0.3-0.2,0.5-0.6,0.5-1c0-0.4-0.2-0.8-0.5-1c-0.3-0.2-0.8-0.4-1.4-0.4H130.5z"/>
                <path d="M141.6,52.9h-0.8v3.8h-1.6v-9h1.6v3.8h0.7l3.2-3.8h1.9l0,0l-3.7,4.3l4,4.7l0,0h-2L141.6,52.9z"/>
                <path d="M154.5,56.7c-0.1-0.3-0.1-0.5-0.1-0.7c0-0.2,0-0.4-0.1-0.6c-0.3,0.4-0.7,0.8-1.2,1.1
			c-0.5,0.3-1,0.4-1.6,0.4c-0.9,0-1.7-0.2-2.1-0.7c-0.5-0.5-0.7-1.1-0.7-2c0-0.9,0.3-1.5,1-2s1.6-0.7,2.8-0.7h1.8v-0.9
			c0-0.5-0.2-0.9-0.5-1.3c-0.3-0.3-0.8-0.5-1.4-0.5c-0.5,0-1,0.1-1.3,0.4s-0.5,0.6-0.5,1l-1.6,0l0,0c0-0.7,0.3-1.3,0.9-1.8
			s1.5-0.8,2.5-0.8c1,0,1.8,0.3,2.5,0.8c0.6,0.5,0.9,1.3,0.9,2.2v4.3c0,0.3,0,0.6,0.1,0.9s0.1,0.6,0.2,0.9H154.5z M151.7,55.5
			c0.6,0,1.1-0.2,1.6-0.5c0.5-0.3,0.8-0.7,0.9-1.1v-1.5h-1.8c-0.7,0-1.2,0.2-1.6,0.5s-0.6,0.7-0.6,1.2c0,0.4,0.1,0.7,0.4,1
			C150.9,55.4,151.2,55.5,151.7,55.5z"/>
                <path d="M167.2,55.6c0.5,0,0.9-0.2,1.3-0.5c0.4-0.3,0.6-0.8,0.6-1.2h1.5l0,0.1c0,0.8-0.3,1.5-1,2.1
			c-0.7,0.6-1.5,0.9-2.4,0.9c-1.3,0-2.2-0.4-2.9-1.3c-0.7-0.9-1-1.9-1-3.2V52c0-1.3,0.3-2.3,1-3.2c0.7-0.9,1.7-1.3,2.9-1.3
			c1,0,1.8,0.3,2.5,0.9c0.6,0.6,1,1.4,0.9,2.3l0,0.1h-1.5c0-0.6-0.2-1-0.5-1.4s-0.8-0.6-1.4-0.6c-0.8,0-1.4,0.3-1.8,0.9
			s-0.6,1.4-0.6,2.3v0.4c0,0.9,0.2,1.7,0.5,2.3C165.8,55.3,166.4,55.6,167.2,55.6z"/>
                <path d="M176.8,56.9c-1.3,0-2.3-0.4-3-1.2s-1.1-1.9-1.1-3.3V52c0-1.3,0.4-2.4,1.1-3.2c0.7-0.8,1.7-1.3,2.7-1.3
			c1.2,0,2.1,0.4,2.7,1.1c0.6,0.8,0.9,1.8,0.9,3v0.9h-5.8l0,0c0,0.9,0.2,1.6,0.6,2.2c0.4,0.6,1,0.8,1.8,0.8c0.6,0,1-0.1,1.5-0.2
			c0.4-0.2,0.8-0.4,1.1-0.7l0.6,1.1c-0.3,0.3-0.7,0.6-1.3,0.8C178.2,56.8,177.5,56.9,176.8,56.9z M176.5,48.8c-0.6,0-1,0.2-1.4,0.7
			s-0.6,1-0.7,1.7l0,0h4.1v-0.1c0-0.7-0.2-1.2-0.5-1.6C177.7,49,177.2,48.8,176.5,48.8z"/>
                <path d="M189.4,49h-3v7.8h-1.6V49h-2.9v-1.3h7.6V49z"/>
                <path d="M195.3,56.9c-1.3,0-2.3-0.4-3-1.2c-0.7-0.8-1.1-1.9-1.1-3.3V52c0-1.3,0.4-2.4,1.1-3.2
			c0.7-0.8,1.7-1.3,2.7-1.3c1.2,0,2.1,0.4,2.7,1.1s0.9,1.8,0.9,3v0.9h-5.8l0,0c0,0.9,0.2,1.6,0.6,2.2c0.4,0.6,1,0.8,1.8,0.8
			c0.6,0,1-0.1,1.5-0.2c0.4-0.2,0.8-0.4,1.1-0.7l0.6,1.1c-0.3,0.3-0.7,0.6-1.3,0.8C196.6,56.8,196,56.9,195.3,56.9z M195,48.8
			c-0.6,0-1,0.2-1.4,0.7c-0.4,0.4-0.6,1-0.7,1.7l0,0h4.1v-0.1c0-0.7-0.2-1.2-0.5-1.6C196.2,49,195.7,48.8,195,48.8z"/>
                <path d="M201,56.7v-9h3.6c1.2,0,2.1,0.2,2.8,0.6c0.7,0.4,1,1,1,1.9c0,0.4-0.1,0.8-0.4,1.1s-0.6,0.6-1.1,0.8
			c0.6,0.1,1,0.4,1.3,0.8c0.3,0.4,0.5,0.8,0.5,1.3c0,0.8-0.3,1.5-0.9,1.9c-0.6,0.4-1.5,0.7-2.6,0.7H201z M202.6,51.5h1.9
			c0.7,0,1.2-0.1,1.6-0.3c0.4-0.2,0.5-0.5,0.5-0.9c0-0.4-0.2-0.8-0.5-1c-0.4-0.2-0.9-0.3-1.6-0.3h-1.9V51.5z M202.6,52.8v2.7h2.5
			c0.6,0,1.1-0.1,1.4-0.3c0.3-0.2,0.5-0.6,0.5-1c0-0.4-0.2-0.8-0.5-1c-0.3-0.2-0.8-0.4-1.4-0.4H202.6z"/>
                <path d="M210.8,52.1c0-1.3,0.4-2.4,1.1-3.3c0.7-0.9,1.7-1.3,2.9-1.3c1.3,0,2.2,0.4,3,1.3c0.7,0.9,1.1,2,1.1,3.3
			v0.2c0,1.3-0.4,2.4-1.1,3.3c-0.7,0.9-1.7,1.3-3,1.3s-2.2-0.4-3-1.3c-0.7-0.9-1.1-2-1.1-3.3V52.1z M212.5,52.3c0,1,0.2,1.7,0.6,2.4
			c0.4,0.6,1,0.9,1.8,0.9c0.8,0,1.4-0.3,1.8-0.9c0.4-0.6,0.6-1.4,0.6-2.4v-0.2c0-0.9-0.2-1.7-0.6-2.4c-0.4-0.6-1-0.9-1.8-0.9
			c-0.8,0-1.4,0.3-1.8,0.9c-0.4,0.6-0.6,1.4-0.6,2.4V52.3z"/>
                <path d="M227.2,49h-4.1v7.7h-1.6v-9h5.7V49z"/>
                <path d="M228.5,52.1c0-1.3,0.4-2.4,1.1-3.3c0.7-0.9,1.7-1.3,2.9-1.3c1.3,0,2.2,0.4,3,1.3c0.7,0.9,1.1,2,1.1,3.3
			v0.2c0,1.3-0.4,2.4-1.1,3.3c-0.7,0.9-1.7,1.3-3,1.3s-2.2-0.4-3-1.3c-0.7-0.9-1.1-2-1.1-3.3V52.1z M230.1,52.3c0,1,0.2,1.7,0.6,2.4
			c0.4,0.6,1,0.9,1.8,0.9c0.8,0,1.4-0.3,1.8-0.9c0.4-0.6,0.6-1.4,0.6-2.4v-0.2c0-0.9-0.2-1.7-0.6-2.4c-0.4-0.6-1-0.9-1.8-0.9
			c-0.8,0-1.4,0.3-1.8,0.9c-0.4,0.6-0.6,1.4-0.6,2.4V52.3z"/>
                <path d="M243.5,52.1c0-1.3,0.4-2.4,1.1-3.3c0.7-0.9,1.7-1.3,2.9-1.3c1.3,0,2.2,0.4,3,1.3c0.7,0.9,1.1,2,1.1,3.3
			v0.2c0,1.3-0.4,2.4-1.1,3.3c-0.7,0.9-1.7,1.3-3,1.3s-2.2-0.4-3-1.3c-0.7-0.9-1.1-2-1.1-3.3V52.1z M245.1,52.3c0,1,0.2,1.7,0.6,2.4
			c0.4,0.6,1,0.9,1.8,0.9c0.8,0,1.4-0.3,1.8-0.9c0.4-0.6,0.6-1.4,0.6-2.4v-0.2c0-0.9-0.2-1.7-0.6-2.4c-0.4-0.6-1-0.9-1.8-0.9
			c-0.8,0-1.4,0.3-1.8,0.9c-0.4,0.6-0.6,1.4-0.6,2.4V52.3z"/>
                <path d="M258.1,47.5c1.2,0,2.1,0.4,2.7,1.3s1,2,1,3.3v0.2c0,1.3-0.4,2.4-1.1,3.3c-0.7,0.9-1.7,1.3-3,1.3
			s-2.2-0.4-3-1.3c-0.7-0.9-1.1-2-1.1-3.3v-0.2c0,0,0-0.1,0-0.1s0-0.1,0-0.1v-2c0-1.7,0.3-3,1-3.8s1.7-1.3,3-1.3
			c0.8,0,1.4-0.1,1.8-0.3s0.6-0.4,0.6-0.8h1.3l0,0c0,0.9-0.3,1.5-0.9,1.8c-0.6,0.4-1.5,0.5-2.7,0.6c-0.8,0-1.5,0.3-2,0.7
			c-0.5,0.4-0.8,1.1-0.7,2l0,0c0.3-0.4,0.7-0.8,1.3-1C256.9,47.7,257.5,47.5,258.1,47.5z M257.7,48.8c-0.8,0-1.4,0.3-1.8,0.9
			c-0.4,0.6-0.6,1.4-0.6,2.4v0.2c0,1,0.2,1.7,0.6,2.4c0.4,0.6,1,0.9,1.8,0.9c0.8,0,1.4-0.3,1.8-0.9c0.4-0.6,0.6-1.4,0.6-2.4v-0.2
			c0-0.9-0.2-1.7-0.6-2.4C259.1,49.1,258.5,48.8,257.7,48.8z"/>
                <path d="M263.7,52.1c0-1.3,0.4-2.4,1.1-3.3c0.7-0.9,1.7-1.3,2.9-1.3c1.3,0,2.2,0.4,3,1.3c0.7,0.9,1.1,2,1.1,3.3
			v0.2c0,1.3-0.4,2.4-1.1,3.3c-0.7,0.9-1.7,1.3-3,1.3s-2.2-0.4-3-1.3c-0.7-0.9-1.1-2-1.1-3.3V52.1z M265.3,52.3c0,1,0.2,1.7,0.6,2.4
			c0.4,0.6,1,0.9,1.8,0.9c0.8,0,1.4-0.3,1.8-0.9c0.4-0.6,0.6-1.4,0.6-2.4v-0.2c0-0.9-0.2-1.7-0.6-2.4c-0.4-0.6-1-0.9-1.8-0.9
			c-0.8,0-1.4,0.3-1.8,0.9c-0.4,0.6-0.6,1.4-0.6,2.4V52.3z"/>
                <path d="M282,52.6c0,1.3-0.3,2.4-0.9,3.2s-1.5,1.2-2.6,1.2c-0.6,0-1-0.1-1.5-0.3c-0.4-0.2-0.8-0.5-1.1-0.8v4.4
			h-1.6V47.7h1.3l0.3,1.2c0.3-0.4,0.7-0.8,1.1-1c0.4-0.2,1-0.3,1.5-0.3c1.1,0,2,0.4,2.6,1.3s0.9,2.1,0.9,3.5V52.6z M280.3,52.4
			c0-1-0.2-1.9-0.6-2.5s-1-1-1.8-1c-0.5,0-0.9,0.1-1.2,0.3c-0.3,0.2-0.6,0.5-0.8,0.9v4.4c0.2,0.4,0.5,0.7,0.8,0.9
			c0.3,0.2,0.7,0.3,1.2,0.3c0.8,0,1.4-0.3,1.8-0.9s0.6-1.3,0.6-2.2V52.4z"/>
                <path d="M287.2,53.4l0.3,1.1h0l2.2-6.8h1.8l-3.8,10.4c-0.2,0.6-0.6,1.1-1,1.6s-1,0.7-1.7,0.7c-0.1,0-0.3,0-0.5,0
			c-0.2,0-0.4-0.1-0.5-0.1l0.2-1.3c0,0,0.1,0,0.3,0c0.2,0,0.4,0,0.4,0c0.4,0,0.6-0.2,0.9-0.5c0.2-0.3,0.4-0.7,0.6-1l0.4-0.9
			l-3.4-8.8h1.8L287.2,53.4z"/>
                <path d="M293.3,55.4c0.4,0,0.7-0.4,0.9-1.1c0.2-0.7,0.3-1.8,0.4-3.3l0.2-3.4h6v7.7h1.2v4.3h-1.6v-3h-6.4v3h-1.6
			v-4.3H293.3z M296.4,51.1c-0.1,1.1-0.2,1.9-0.3,2.6s-0.3,1.3-0.5,1.7h3.7v-6.3h-2.8L296.4,51.1z"/>
                <path d="M304,52.1c0-1.3,0.4-2.4,1.1-3.3c0.7-0.9,1.7-1.3,2.9-1.3c1.3,0,2.2,0.4,3,1.3c0.7,0.9,1.1,2,1.1,3.3v0.2
			c0,1.3-0.4,2.4-1.1,3.3c-0.7,0.9-1.7,1.3-3,1.3s-2.2-0.4-3-1.3c-0.7-0.9-1.1-2-1.1-3.3V52.1z M305.7,52.3c0,1,0.2,1.7,0.6,2.4
			c0.4,0.6,1,0.9,1.8,0.9c0.8,0,1.4-0.3,1.8-0.9c0.4-0.6,0.6-1.4,0.6-2.4v-0.2c0-0.9-0.2-1.7-0.6-2.4c-0.4-0.6-1-0.9-1.8-0.9
			c-0.8,0-1.4,0.3-1.8,0.9c-0.4,0.6-0.6,1.4-0.6,2.4V52.3z"/>
                <path d="M314.6,56.7v-9h3.6c1.2,0,2.1,0.2,2.8,0.6c0.7,0.4,1,1,1,1.9c0,0.4-0.1,0.8-0.4,1.1s-0.6,0.6-1.1,0.8
			c0.6,0.1,1,0.4,1.3,0.8c0.3,0.4,0.5,0.8,0.5,1.3c0,0.8-0.3,1.5-0.9,1.9c-0.6,0.4-1.5,0.7-2.6,0.7H314.6z M316.3,51.5h1.9
			c0.7,0,1.2-0.1,1.6-0.3c0.4-0.2,0.5-0.5,0.5-0.9c0-0.4-0.2-0.8-0.5-1c-0.4-0.2-0.9-0.3-1.6-0.3h-1.9V51.5z M316.3,52.8v2.7h2.5
			c0.6,0,1.1-0.1,1.4-0.3c0.3-0.2,0.5-0.6,0.5-1c0-0.4-0.2-0.8-0.5-1c-0.3-0.2-0.8-0.4-1.4-0.4H316.3z"/>
                <path d="M330.4,56.7c-0.1-0.3-0.1-0.5-0.1-0.7c0-0.2,0-0.4-0.1-0.6c-0.3,0.4-0.7,0.8-1.2,1.1
			c-0.5,0.3-1,0.4-1.6,0.4c-0.9,0-1.7-0.2-2.1-0.7c-0.5-0.5-0.7-1.1-0.7-2c0-0.9,0.3-1.5,1-2c0.7-0.5,1.6-0.7,2.8-0.7h1.8v-0.9
			c0-0.5-0.2-0.9-0.5-1.3c-0.3-0.3-0.8-0.5-1.4-0.5c-0.5,0-1,0.1-1.3,0.4c-0.3,0.3-0.5,0.6-0.5,1l-1.6,0l0,0c0-0.7,0.3-1.3,0.9-1.8
			c0.7-0.5,1.5-0.8,2.5-0.8c1,0,1.8,0.3,2.5,0.8c0.6,0.5,0.9,1.3,0.9,2.2v4.3c0,0.3,0,0.6,0,0.9c0,0.3,0.1,0.6,0.2,0.9H330.4z
			 M327.7,55.5c0.6,0,1.1-0.2,1.6-0.5c0.5-0.3,0.8-0.7,0.9-1.1v-1.5h-1.8c-0.7,0-1.2,0.2-1.6,0.5c-0.4,0.3-0.6,0.7-0.6,1.2
			c0,0.4,0.1,0.7,0.4,1C326.8,55.4,327.2,55.5,327.7,55.5z"/>
                <path d="M342.1,56.7h-1.6v-3.8h-4v3.8h-1.6v-9h1.6v3.9h4v-3.9h1.6V56.7z"/>
                <path d="M350.7,47.7h1.6v9h-1.6v-6.4l-0.1,0l-4,6.4H345v-9h1.6v6.4l0.1,0L350.7,47.7z"/>
                <path d="M362.5,47.7v9h-1.6v-3.5h-2.2l-2.1,3.5h-1.8L357,53c-0.6-0.2-1-0.5-1.3-1c-0.3-0.4-0.5-1-0.5-1.5
			c0-0.8,0.3-1.5,0.9-2c0.6-0.5,1.5-0.8,2.5-0.8H362.5z M356.8,50.5c0,0.4,0.1,0.7,0.4,1c0.3,0.3,0.7,0.4,1.2,0.4h2.3v-3h-2.2
			c-0.6,0-1,0.1-1.4,0.4C357,49.7,356.8,50.1,356.8,50.5z"/>
            </g>
        </g>

    </symbol>

    <symbol id="icon-phone" viewBox="-60 184.1 473.8 473.8">
        <path d="M314.5,477.6c-9.7-10.1-21.4-15.5-33.8-15.5c-12.3,0-24.1,5.3-34.2,15.4L214.9,509c-2.6-1.4-5.2-2.7-7.7-4
			c-3.6-1.8-7-3.5-9.9-5.3c-29.6-18.8-56.5-43.3-82.3-75c-12.5-15.8-20.9-29.1-27-42.6c8.2-7.5,15.8-15.3,23.2-22.8
			c2.8-2.8,5.6-5.7,8.4-8.5c21-21,21-48.2,0-69.2l-27.3-27.3c-3.1-3.1-6.3-6.3-9.3-9.5c-6-6.2-12.3-12.6-18.8-18.6
			c-9.7-9.6-21.3-14.7-33.5-14.7s-24,5.1-34,14.7c-0.1,0.1-0.1,0.1-0.2,0.2l-34,34.3c-12.8,12.8-20.1,28.4-21.7,46.5
			c-2.4,29.2,6.2,56.4,12.8,74.2C-30.2,425.1-6,465.6,30.1,509c43.8,52.3,96.5,93.6,156.7,122.7c23,10.9,53.7,23.8,88,26
			c2.1,0.1,4.3,0.2,6.3,0.2c23.1,0,42.5-8.3,57.7-24.8c0.1-0.2,0.3-0.3,0.4-0.5c5.2-6.3,11.2-12,17.5-18.1c4.3-4.1,8.7-8.4,13-12.9
			c9.9-10.3,15.1-22.3,15.1-34.6c0-12.4-5.3-24.3-15.4-34.3L314.5,477.6z M350.3,582.9C350.2,582.9,350.2,583,350.3,582.9
			c-3.9,4.2-7.9,8-12.2,12.2c-6.5,6.2-13.1,12.7-19.3,20c-10.1,10.8-22,15.9-37.6,15.9c-1.5,0-3.1,0-4.6-0.1
			c-29.7-1.9-57.3-13.5-78-23.4C142,580.1,92.3,541.2,51,491.9C16.9,450.8-5.9,412.8-21,372c-9.3-24.9-12.7-44.3-11.2-62.6
			c1-11.7,5.5-21.4,13.8-29.7l34.1-34.1c4.9-4.6,10.1-7.1,15.2-7.1c6.3,0,11.4,3.8,14.6,7c0.1,0.1,0.2,0.2,0.3,0.3
			c6.1,5.7,11.9,11.6,18,17.9c3.1,3.2,6.3,6.4,9.5,9.7l27.3,27.3c10.6,10.6,10.6,20.4,0,31c-2.9,2.9-5.7,5.8-8.6,8.6
			c-8.4,8.6-16.4,16.6-25.1,24.4c-0.2,0.2-0.4,0.3-0.5,0.5c-8.6,8.6-7,17-5.2,22.7c0.1,0.3,0.2,0.6,0.3,0.9
			c7.1,17.2,17.1,33.4,32.3,52.7l0.1,0.1c27.6,34,56.7,60.5,88.8,80.8c4.1,2.6,8.3,4.7,12.3,6.7c3.6,1.8,7,3.5,9.9,5.3
			c0.4,0.2,0.8,0.5,1.2,0.7c3.4,1.7,6.6,2.5,9.9,2.5c8.3,0,13.5-5.2,15.2-6.9l34.2-34.2c3.4-3.4,8.8-7.5,15.1-7.5
			c6.2,0,11.3,3.9,14.4,7.3c0.1,0.1,0.1,0.1,0.2,0.2l55.1,55.1C360.5,561.8,360.5,572.3,350.3,582.9z"/>
        <path d="M196.1,296.8c26.2,4.4,50,16.8,69,35.8s31.3,42.8,35.8,69c1.1,6.6,6.8,11.2,13.3,11.2c0.8,0,1.5-0.1,2.3-0.2
			c7.4-1.2,12.3-8.2,11.1-15.6c-5.4-31.7-20.4-60.6-43.3-83.5c-22.9-22.9-51.8-37.9-83.5-43.3c-7.4-1.2-14.3,3.7-15.6,11
			C183.9,288.5,188.7,295.6,196.1,296.8z"/>
        <path d="M413.3,393.1c-8.9-52.2-33.5-99.7-71.3-137.5s-85.3-62.4-137.5-71.3c-7.3-1.3-14.2,3.7-15.5,11
			c-1.2,7.4,3.7,14.3,11.1,15.6c46.6,7.9,89.1,30,122.9,63.7c33.8,33.8,55.8,76.3,63.7,122.9c1.1,6.6,6.8,11.2,13.3,11.2
			c0.8,0,1.5-0.1,2.3-0.2C409.6,407.4,414.6,400.4,413.3,393.1z"/>
    </symbol>

    <symbol id="icon-user" viewBox="-19.9 180 410.8 482.9">
        <path d="M183.7,440.2c0.5,0,1,0,1.6,0c0.2,0,0.4,0,0.6,0c0.3,0,0.7,0,1,0c29.3-0.5,53-10.8,70.5-30.5
			c38.5-43.4,32.1-117.8,31.4-124.9c-2.5-53.3-27.7-78.8-48.5-90.7c-15.5-8.9-33.6-13.7-53.8-14.1h-0.7c-0.1,0-0.3,0-0.4,0h-0.6
			c-11.1,0-32.9,1.8-53.8,13.7c-21,11.9-46.6,37.4-49.1,91.1c-0.7,7.1-7.1,81.5,31.4,124.9C130.7,429.4,154.4,439.7,183.7,440.2z
			 M108.6,287.3c0-0.3,0.1-0.6,0.1-0.8c3.3-71.7,54.2-79.4,76-79.4h0.4c0.2,0,0.5,0,0.8,0c27,0.6,72.9,11.6,76,79.4
			c0,0.3,0,0.6,0.1,0.8c0.1,0.7,7.1,68.7-24.7,104.5c-12.6,14.2-29.4,21.2-51.5,21.4c-0.2,0-0.3,0-0.5,0l0,0c-0.2,0-0.3,0-0.5,0
			c-22-0.2-38.9-7.2-51.4-21.4C101.7,356.2,108.5,287.9,108.6,287.3z"/>
        <path d="M390.8,563.6c0-0.1,0-0.2,0-0.3c0-0.8-0.1-1.6-0.1-2.5c-0.6-19.8-1.9-66.1-45.3-80.9c-0.3-0.1-0.7-0.2-1-0.3
			c-45.1-11.5-82.6-37.5-83-37.8c-6.1-4.3-14.5-2.8-18.8,3.3c-4.3,6.1-2.8,14.5,3.3,18.8c1.7,1.2,41.5,28.9,91.3,41.7
			c23.3,8.3,25.9,33.2,26.6,56c0,0.9,0,1.7,0.1,2.5c0.1,9-0.5,22.9-2.1,30.9c-16.2,9.2-79.7,41-176.3,41
			c-96.2,0-160.1-31.9-176.4-41.1C7.5,586.9,6.8,573,7,564c0-0.8,0.1-1.6,0.1-2.5c0.7-22.8,3.3-47.7,26.6-56
			c49.8-12.8,89.6-40.6,91.3-41.7c6.1-4.3,7.6-12.7,3.3-18.8c-4.3-6.1-12.7-7.6-18.8-3.3c-0.4,0.3-37.7,26.3-83,37.8
			c-0.4,0.1-0.7,0.2-1,0.3c-43.4,14.9-44.7,61.2-45.3,80.9c0,0.9,0,1.7-0.1,2.5c0,0.1,0,0.2,0,0.3c-0.1,5.2-0.2,31.9,5.1,45.3
			c1,2.6,2.8,4.8,5.2,6.3c3,2,74.9,47.8,195.2,47.8s192.2-45.9,195.2-47.8c2.3-1.5,4.2-3.7,5.2-6.3
			C391,595.5,390.9,568.8,390.8,563.6z"/>

    </symbol>

    <symbol id="icon-basket" viewBox="-4.2 176.9 391.4 489">
        <path d="M387.1,599.6l-28-315.3c-0.6-7-6.5-12.3-13.4-12.3h-57.6c-0.8-52.6-43.8-95.1-96.6-95.1S95.7,219.4,94.9,272H37.3
		c-7,0-12.8,5.3-13.4,12.3l-28,315.3c0,0.4-0.1,0.8-0.1,1.2c0,35.9,32.9,65.1,73.4,65.1h244.6c40.5,0,73.4-29.2,73.4-65.1
		C387.2,600.4,387.2,600,387.1,599.6z M191.5,203.9c37.9,0,68.8,30.4,69.6,68.1H121.9C122.7,234.3,153.6,203.9,191.5,203.9z
		 M313.8,638.9H69.2c-25.4,0-46-16.8-46.4-37.5l26.8-302.3h45.2v41c0,7.5,6,13.5,13.5,13.5s13.5-6,13.5-13.5v-41h139.3v41
		c0,7.5,6,13.5,13.5,13.5s13.5-6,13.5-13.5v-41h45.2l26.9,302.3C359.8,622.1,339.1,638.9,313.8,638.9z"/>

    </symbol>

    <symbol id="icon-mail" viewBox="0 0 0 0">

    </symbol>

    <symbol id="icon-facebook" viewBox="0 0 0 0">

    </symbol>

    <symbol id="icon-twitter" viewBox="0 0 0 0">

    </symbol>

    <symbol id="icon-googleplus" viewBox="0 0 0 0">

    </symbol>

    <symbol id="icon-youtube" viewBox="0 0 0 0">

    </symbol>


</svg>